<svg xmlns="http://www.w3.org/2000/svg" xmlns:xlink="http://www.w3.org/1999/xlink" width="424" height="424" viewBox="0 0 424 424">
  <defs>
    <clipPath id="clip-path">
      <circle id="Ellipse_98" data-name="Ellipse 98" cx="212" cy="212" r="212" fill="#374757"/>
    </clipPath>
    <linearGradient id="linear-gradient" x1="0.601" y1="0.543" x2="1.061" y2="0.094" gradientUnits="objectBoundingBox">
      <stop offset="0" stop-color="#fff"/>
      <stop offset="1" stop-color="#fff" stop-opacity="0"/>
    </linearGradient>
  </defs>
  <g id="dr-login-img" transform="translate(0 0)">
    <g id="Ellipse_99" data-name="Ellipse 99" transform="translate(0 0)" fill="#2db68d" stroke="#2db68d" stroke-width="1" opacity="0.02">
      <circle cx="212" cy="212" r="212" stroke="none"/>
      <circle cx="212" cy="212" r="211.5" fill="none"/>
    </g>
    <g id="Mask_Group_3" data-name="Mask Group 3" transform="translate(0 0)" clip-path="url(#clip-path)">
      <g id="Group_5956" data-name="Group 5956" transform="translate(-20.548 69.385)">
        <g id="Group_5944" data-name="Group 5944" transform="translate(51.268)">
          <g id="Group_5920" data-name="Group 5920" transform="translate(126.53 2.62)">
            <path id="Path_30673" data-name="Path 30673" d="M264.619,420.272a1.512,1.512,0,0,1-1.4,1.031l-9.3.141c1.008-6.837.634-14.145.307-20.492a.481.481,0,0,0-.961,0c-.422,7-2.389,13.77-3.935,20.562-.82.023-1.64.023-2.459.045.609-3.558.318-7.187.527-10.444.048-.656-.431-.631-.5,0a83.818,83.818,0,0,1-2.014,10.469l-15.737.211c.958-6.417,1.474-12.928,1.919-19.227.048-.679-.427-.679-.5,0-.561,6.581-2.266,12.928-3.554,19.25-25.994.282-52.036.375-78.03.048-.045-3.372-.209-6.747-.141-10.048.025-.279-.375-.257-.4,0-.4,3.3-.983,6.676-1.406,10.048-1.4-.025-2.809-.025-4.237-.07,0-.727,0-1.453.023-2.18.118-5.384,1.195-10.584.772-15.994a.164.164,0,0,0-.327,0c-.656,6.229-2.248,12.108-3.254,18.148-3.093-.045-6.161-.093-9.251-.141a1.384,1.384,0,0,1-1.381-1.31c.491-15.2-1.78-34.589,7.119-48.148,3.958-6.043,9.3-10.351,15.362-14.1,9.344-5.784-5.668-39.671,23.278-67.491a28.06,28.06,0,0,1,19.32-7.893c33.136,0,52.174,29.366,52.971,50.56a65.779,65.779,0,0,1-2.927,21.312c-4.24,14.19,10.677,22.5,14.776,26.417C270.38,391.539,269.115,407.183,264.619,420.272Z" transform="translate(-125.08 -282.69)" fill="#2a443e"/>
            <path id="Path_30674" data-name="Path 30674" d="M210.069,379.154c-5.57-10.416-19-14.937-19.186-27.981-.082-5.811.924-11.524.6-17.367a75.438,75.438,0,0,0-2.452-15.535A77.533,77.533,0,0,0,173.8,289.223c-.032-.039-.082.016-.052.052a81.041,81.041,0,0,1,16.525,49.4c-.057,5.348-1.349,10.934-.406,16.241,1.44,8.118,8.674,11.515,13.9,16.854,8.911,9.11,11.76,22.027,9.2,34.414a.2.2,0,0,0,.388.109A37.988,37.988,0,0,0,210.069,379.154Z" transform="translate(-68.711 -274.405)" fill="#2a443e"/>
            <path id="Path_30675" data-name="Path 30675" d="M169.378,291a67.143,67.143,0,0,0-12.43,28.762c-.963,5.339-1.169,10.789-2.257,16.1-1.428,6.974-4.592,11.92-9.642,16.82-15.653,15.18-19.738,35.995-16.561,57.127.073.486.908.377.861-.116-1.14-11.978-1.344-24.034,2.732-35.545a47.565,47.565,0,0,1,9.313-16.077c3.234-3.572,7.3-6.363,10.117-10.314,4.969-6.967,5.018-15.86,6.081-24.016,1.526-11.724,5.811-22.588,11.851-32.706C169.466,291,169.407,290.965,169.378,291Z" transform="translate(-127.486 -272.149)" fill="#2a443e"/>
          </g>
          <g id="Group_5923" data-name="Group 5923" transform="translate(0 58.884)">
            <g id="Group_5921" data-name="Group 5921">
              <path id="Path_30676" data-name="Path 30676" d="M73.083,308.991l4.442-1.524s20.814,4.662,27.763,16.561c0,0,15.271-11.738,50.133-6.122l4.635,3.869L103.21,337Z" transform="translate(-70.092 -307.467)" fill="#f0e4d6"/>
              <path id="Path_30677" data-name="Path 30677" d="M104.614,395.135,86.795,320.361s37.432-9.476,56.832-7.16l18.164,78.757S141.781,391.458,104.614,395.135Z" transform="translate(-52.667 -300.643)" fill="#ce4d35"/>
              <path id="Path_30678" data-name="Path 30678" d="M123.713,401.593S114.98,391.3,96.795,384.985L71.766,307.754a217.087,217.087,0,0,1,34.128,19.066Z" transform="translate(-71.766 -307.102)" fill="#b23e2f"/>
            </g>
            <g id="Group_5922" data-name="Group 5922" transform="translate(47.275 63.761)">
              <path id="Path_30679" data-name="Path 30679" d="M230.177,389.753c-1.006,1.029-2.085,2.178-3.254,3.395-19.016,19.929-55.456,63.767-73.956,53.98-19.461-10.328-53.814-62.177-59.13-72.784-5.316-10.584,7.516-21.264,15.455-17.915,7.939,3.325,43.956,33.043,49.016,35.618,2.178,1.1,11.708-8.968,26.648-22.459,1.194-1.076,2.437-2.178,3.7-3.3,16.323-14.449,34.753-29.693,47.117-30.7a14.807,14.807,0,0,1,3.888.211C254.954,339.076,256.616,362.47,230.177,389.753Z" transform="translate(-92.584 -335.546)" fill="#ffccac"/>
              <path id="Path_30680" data-name="Path 30680" d="M178.483,389.753c-1.006,1.029-2.085,2.178-3.254,3.395a61.546,61.546,0,0,0-10.609-11.17c-10.046-8.1-22.154-10.375-31.358-12.39,1.194-1.076,2.437-2.178,3.7-3.3,16.323-14.449,34.753-29.693,47.117-30.7a14.808,14.808,0,0,1,3.888.211C203.26,339.076,204.922,362.47,178.483,389.753Z" transform="translate(-40.89 -335.546)" fill="#d7a385"/>
              <path id="Path_30681" data-name="Path 30681" d="M126.658,381.938a4.1,4.1,0,0,0-5.854-.6,3.126,3.126,0,0,0,.895,5.15c1.66.733,3.724-1.1,2.471-2.816-.2-.263-.575.07-.441.388.472,1.135-1.047,1.63-1.755,1.013a1.784,1.784,0,0,1-.463-1.976,2.078,2.078,0,0,1,2.546-1.079,3.06,3.06,0,0,1,2.139,2.114,4.147,4.147,0,0,1-.8,3.186c-.134.218.154.522.345.4A4.141,4.141,0,0,0,126.658,381.938Z" transform="translate(-57.971 -278.597)" fill="#c47c8a"/>
            </g>
            <path id="Path_30682" data-name="Path 30682" d="M128.741,373.9l-9.851-11.538s-3.656-11.956-8.325-14.833-9.4-21.514-16.252-19.865S82.646,350.522,84.86,357.8s14.052,15.871,14.052,15.871l8.577,16.366S126.016,384.909,128.741,373.9Z" transform="translate(-55.818 -281.925)" fill="#ffccac"/>
            <path id="Path_30683" data-name="Path 30683" d="M173.134,392.049c-2.064-.059-7.344-22.136-35.527-30.064-2.616-.736,29.13-26.233,42.946-28.072s19.465,11.218,16.552,24.62S176.027,392.13,173.134,392.049Z" transform="translate(11.713 -274.08)" fill="#f0e4d6"/>
          </g>
          <g id="Group_5929" data-name="Group 5929" transform="translate(156.192 105.798)">
            <g id="Group_5924" data-name="Group 5924" transform="translate(12.341 144.962)">
              <path id="Path_30684" data-name="Path 30684" d="M308.049,487.174l-89.193-.032v.032H145.983c9.058-40.332,27.116-74.083,27.116-74.083l79.17-21.128S297.594,422.583,308.049,487.174Z" transform="translate(-145.983 -391.963)" fill="#ce4d35"/>
              <path id="Path_30685" data-name="Path 30685" d="M194.4,455.418h-3.07c-.838-7.044-1.179-14.706-1.522-22.431-10.95-.961-20.66-7.787-28.478-14.983-.59-.559.279-1.4.87-.9,8.593,7.23,18.4,10.021,28.665,13.745a1.171,1.171,0,0,1,.4.277.622.622,0,0,1,.343.436C193.279,438.664,193.931,447.413,194.4,455.418Z" transform="translate(-126.735 -360.207)" fill="#b23e2f"/>
            </g>
            <g id="Group_5926" data-name="Group 5926" transform="translate(1.981 6.52)">
              <path id="Path_30686" data-name="Path 30686" d="M183.255,333.574c-11.888,3.372-19.427,15.923-24.961,28.51s-18.126,38.49-16.772,57.411c1.047,14.631,22.69,28.208,22.69,28.208s9.949,35.479,14.685,42.864c7.1,11.075,53.916,23.853,80.273-18.4,2.723-4.365-2.28-86.564-17.51-113.816C229.648,336.86,211.476,325.574,183.255,333.574Z" transform="translate(-141.42 -330.997)" fill="#f0e4d6"/>
              <g id="Group_5925" data-name="Group 5925" transform="translate(23.978 104.935)">
                <path id="Path_30687" data-name="Path 30687" d="M201.27,377.245c-7.991,3.59-14.354,8.631-23.546,8.981-7.939.3-15.582-2.434-22.86-5.277-.325-.127-.5.368-.227.54,7.262,4.607,15.471,7.464,24.175,6.915,8.961-.563,15.78-5.43,22.79-10.593A.328.328,0,0,0,201.27,377.245Z" transform="translate(-148.775 -377.208)" fill="#e0d1c3"/>
                <path id="Path_30688" data-name="Path 30688" d="M164.433,382.188a14.347,14.347,0,0,0-12.3-.795.308.308,0,0,0,.154.57,35.556,35.556,0,0,1,5.623-.295,30.156,30.156,0,0,1,6.111,1.505A.542.542,0,0,0,164.433,382.188Z" transform="translate(-151.98 -373.19)" fill="#e0d1c3"/>
              </g>
              <path id="Path_30689" data-name="Path 30689" d="M196.915,337.484c-5.252,6.354-11.227,11.481-19.114,14.29-9.744,3.47-22.71,1.6-22.94-11.37a.137.137,0,0,0-.275,0c-.347,9.058,6.2,15.814,15.4,14.994,10.736-.956,21.509-8.847,27.373-17.567C197.541,337.566,197.121,337.235,196.915,337.484Z" transform="translate(-124.706 -322.866)" fill="#e0d1c3"/>
            </g>
            <g id="Group_5928" data-name="Group 5928" transform="translate(0)">
              <path id="Path_30690" data-name="Path 30690" d="M150.537,568.308H303.552S268,491.146,260.976,483.72a9.45,9.45,0,0,1-1.335-1.966v-.023c-.958-6.651,5.527-9.251,7.285-8.665s-3.888-9.553-4.567-10.094c-.656-.515-9.017.913-10.727-4.916a.184.184,0,0,1-.045-.1c-6.347-23.253-13.091-54.915-15.48-64.728-4.73-19.461-10.584-40.373-24.473-58.592-4.846-6.37-22.363-12.108-36.953,3.488-8.852,9.485-40.139,66.6-33.113,86.484s21.661,26.323,22.154,28.267c.49,1.967,11.452,34.074,10.959,43.72C174.165,506.249,152.5,547.489,150.537,568.308ZM162.831,379.7c-1.358-2.13,14.613-38.429,21.521-42.48,4.755-2.764,19.774-3.372,22.445-.586s2.4,39.953-1.437,41.429C201.517,379.51,164.212,381.851,162.831,379.7Z" transform="translate(-140.548 -328.126)" fill="#2db68d"/>
              <g id="Group_5927" data-name="Group 5927" transform="translate(25.959 111.455)">
                <path id="Path_30691" data-name="Path 30691" d="M201.27,377.245c-7.991,3.59-14.354,8.631-23.546,8.981-7.939.3-15.582-2.434-22.86-5.277-.325-.127-.5.368-.227.54,7.262,4.607,15.471,7.464,24.175,6.915,8.961-.563,15.78-5.43,22.79-10.593A.328.328,0,0,0,201.27,377.245Z" transform="translate(-148.775 -377.208)" fill="#3a6b5f"/>
                <path id="Path_30692" data-name="Path 30692" d="M164.433,382.188a14.347,14.347,0,0,0-12.3-.795.308.308,0,0,0,.154.57,35.556,35.556,0,0,1,5.623-.295,30.156,30.156,0,0,1,6.111,1.505A.542.542,0,0,0,164.433,382.188Z" transform="translate(-151.98 -373.19)" fill="#3a6b5f"/>
              </g>
            </g>
          </g>
          <g id="Group_5939" data-name="Group 5939" transform="translate(150.615)">
            <g id="Group_5930" data-name="Group 5930" transform="translate(34.656 70.427)">
              <path id="Path_30693" data-name="Path 30693" d="M163.768,370.647s2.6,7.117,9.145,6.015c11.334-1.9,17.962-13.859,18.437-16.67.186-1.21-.647-11.349-2.268-21.1l-.511-2.923c-.17-.974-.347-1.9-.543-2.825-.241-1.235-.5-2.443-.749-3.652-1.91-9.14-3.611-16.945-3.611-16.945l-3.838,2.575-26.475,19.332,6.59,22.908.388,1.4.141.456,2.016,6.9.02.059Z" transform="translate(-153.354 -312.55)" fill="#ffccac"/>
              <path id="Path_30694" data-name="Path 30694" d="M160.332,358.768A24.781,24.781,0,0,0,172.15,357.2c8.6-3.256,13.509-10.355,16.931-18.31l-.511-2.923c-.17-.974-.347-1.9-.543-2.825-.241-1.235-.5-2.443-.749-3.652-1.91-9.14-3.611-16.945-3.611-16.945l-3.838,2.575-26.475,19.332,6.59,22.908Z" transform="translate(-153.354 -312.55)" fill="#d7a385"/>
            </g>
            <g id="Group_5938" data-name="Group 5938">
              <path id="Path_30695" data-name="Path 30695" d="M138.943,337.352c.924,42.224,24.616,44.038,31.823,45.083,8.182,1.188,39.982-.738,43.427-42.832s-16.479-55.011-35.4-55.578S138.021,295.128,138.943,337.352Z" transform="translate(-137.048 -278.4)" fill="#ffccac"/>
              <g id="Group_5935" data-name="Group 5935" transform="translate(5.069 42.47)">
                <g id="Group_5931" data-name="Group 5931" transform="translate(28.015 13.155)">
                  <path id="Path_30696" data-name="Path 30696" d="M153.046,307.578c.03-.107.213.154.2.27-.311,2.861-.184,6.188,2.337,7.339.077.036.059.179-.036.159C152.415,314.658,152.293,310.239,153.046,307.578Z" transform="translate(-152.662 -304.099)" fill="#2a443e"/>
                  <path id="Path_30697" data-name="Path 30697" d="M155.765,306.332c4.639,0,4.29,9.281-.007,9.276C151.53,315.606,151.877,306.33,155.765,306.332Z" transform="translate(-152.591 -305.65)" fill="#2a443e"/>
                  <path id="Path_30698" data-name="Path 30698" d="M154.919,307.061c.811.361,1.665,1.09,2.564,1.038,1.042-.059,1.68-1.063,2.219-2.016.054-.1.138-.039.159.073.277,1.612-.084,3.365-1.778,3.876-1.544.468-2.9-.783-3.558-2.343C154.4,307.4,154.592,306.916,154.919,307.061Z" transform="translate(-150.342 -306.032)" fill="#2a443e"/>
                </g>
                <g id="Group_5932" data-name="Group 5932" transform="translate(0 12.496)">
                  <path id="Path_30699" data-name="Path 30699" d="M145.918,307.1c-.03-.109-.216.15-.2.268.268,2.863.093,6.188-2.446,7.3-.077.034-.061.177.034.159C146.442,314.19,146.631,309.773,145.918,307.1Z" transform="translate(-136.647 -304.045)" fill="#2a443e"/>
                  <path id="Path_30700" data-name="Path 30700" d="M145.109,305.838c-4.639-.066-4.428,9.215-.132,9.274C149.206,315.173,149,305.893,145.109,305.838Z" transform="translate(-138.586 -305.62)" fill="#2a443e"/>
                  <path id="Path_30701" data-name="Path 30701" d="M145.346,306.353c-.777.429-1.565,1.229-2.466,1.254-1.045.029-1.764-.917-2.382-1.821-.064-.093-.143-.025-.152.089-.139,1.628.37,3.345,2.1,3.711,1.578.334,2.825-1.029,3.347-2.639C145.889,306.646,145.658,306.181,145.346,306.353Z" transform="translate(-140.325 -305.742)" fill="#2a443e"/>
                </g>
                <path id="Path_30702" data-name="Path 30702" d="M156.316,316.97c-.618.738-1.21,1.728-2.241,1.919a7.576,7.576,0,0,1-3.147-.413.1.1,0,0,0-.109.159,3.878,3.878,0,0,0,3.788,1.192,3.065,3.065,0,0,0,2-2.757C156.632,316.9,156.407,316.861,156.316,316.97Z" transform="translate(-127.019 -279.054)" fill="#c47c8a"/>
                <path id="Path_30703" data-name="Path 30703" d="M143.018,305.036a27.373,27.373,0,0,0,2.827-.711,4.711,4.711,0,0,0,2.748-1.274,1.5,1.5,0,0,0-.073-1.835,3.729,3.729,0,0,0-3.7-.729,5.492,5.492,0,0,0-3.359,2.066A1.6,1.6,0,0,0,143.018,305.036Z" transform="translate(-139.279 -300.14)" fill="#2a443e"/>
                <path id="Path_30704" data-name="Path 30704" d="M159.111,305.652a27.421,27.421,0,0,1-2.818-.754,4.714,4.714,0,0,1-2.727-1.315,1.506,1.506,0,0,1,.1-1.833,3.724,3.724,0,0,1,3.713-.674,5.47,5.47,0,0,1,3.329,2.116A1.6,1.6,0,0,1,159.111,305.652Z" transform="translate(-123.835 -299.419)" fill="#2a443e"/>
                <g id="Group_5933" data-name="Group 5933" transform="translate(17.813 30.388)">
                  <path id="Path_30705" data-name="Path 30705" d="M148.169,316.771a11.777,11.777,0,0,0,4.562,3.849,5.311,5.311,0,0,0,3.209.336c2.353-.515,2.5-2.65,2.15-4.494a12.776,12.776,0,0,0-.929-2.841A15.26,15.26,0,0,1,148.169,316.771Z" transform="translate(-148.169 -313.621)" fill="#2a443e"/>
                  <path id="Path_30706" data-name="Path 30706" d="M150.178,319.03a5.308,5.308,0,0,0,3.209.336c2.352-.515,2.5-2.65,2.15-4.494C153.03,315.024,150.491,316.614,150.178,319.03Z" transform="translate(-145.616 -312.031)" fill="#ef7f9f"/>
                </g>
                <g id="Group_5934" data-name="Group 5934" transform="translate(12.064)">
                  <path id="Path_30707" data-name="Path 30707" d="M150.42,328.275s-.411,4.319-.327,6.342c.009.189.5.259,1.192.27.032.009.052.02.08,0a9.628,9.628,0,0,0,9.192-3.988c.132-.2-.134-.4-.313-.268-2.584,2.071-5.514,2.7-8.679,2.888-.168-.554.951-7.369.629-7.378-1.11-.05-3.259.8-4.553,1.235.6-9.015,2.634-17.862,3.093-26.848a.276.276,0,0,0-.534-.109c-2.791,9.122-3.7,19.481-4.56,28.776C145.521,330.353,149.622,328.656,150.42,328.275Z" transform="translate(-145.637 -300.239)" fill="#c47c8a"/>
                </g>
              </g>
              <path id="Path_30708" data-name="Path 30708" d="M213.466,342.927c-4.71,0-17.685-12.192-19.393-34.828,0,0,2.938,20.222,4.644,23.112s-7.258-6.862-8.89-25.1c0,0-9.69,7.9-18.176,10.827s-13.77,3.154-14.424,2.566,11.808-5.334,15.008-9.5c0,0-22.324,12.022-32.857,13.452-1.219.166-4.16-24.918,11.565-36.56s42.319-1.635,49.681,4.682c0,0,8.25.683,17.853,12.26S218.536,342.932,213.466,342.927Z" transform="translate(-137.78 -281.536)" fill="#2a443e"/>
              <g id="Group_5936" data-name="Group 5936" transform="translate(0 48.076)">
                <path id="Path_30709" data-name="Path 30709" d="M159.091,327.54a12.282,12.282,0,0,1-10.1-14.1v0a12.269,12.269,0,1,1,10.1,14.106ZM150.608,313.7a10.625,10.625,0,1,0,9.581-8.854A10.642,10.642,0,0,0,150.608,313.7Z" transform="translate(-124.453 -302.121)" fill="#f0e4d6"/>
                <path id="Path_30710" data-name="Path 30710" d="M146.841,327.232c-5.032-.159-8.952-5.788-8.74-12.549a14.65,14.65,0,0,1,2.861-8.488,7.64,7.64,0,0,1,13.075.413,14.639,14.639,0,0,1,2.321,8.652c-.2,6.4-4.035,11.552-8.713,11.951A6.774,6.774,0,0,1,146.841,327.232ZM142.258,307.2a13.013,13.013,0,0,0-2.518,7.537c-.184,5.856,3.025,10.727,7.153,10.857,4.144.136,7.639-4.528,7.825-10.385a13.022,13.022,0,0,0-2.037-7.68,6.544,6.544,0,0,0-5.118-3.177,5.161,5.161,0,0,0-.622.018A6.752,6.752,0,0,0,142.258,307.2Z" transform="translate(-138.092 -302.707)" fill="#f0e4d6"/>
                <path id="Path_30711" data-name="Path 30711" d="M153.562,310.294l1.095-1.224c-1.81-1.619-6.045-3.854-9.14-.745l1.163,1.156C149.447,306.692,153.4,310.149,153.562,310.294Z" transform="translate(-128.658 -297.548)" fill="#f0e4d6"/>
                <path id="Path_30712" data-name="Path 30712" d="M191.928,312.922l1.335-.952c-.445-.622-4.446-6.086-8.155-6.154-3.468-.054-24.936,5.1-25.847,5.323l.386,1.594c6.152-1.485,22.751-5.327,25.429-5.277C187.527,307.5,190.851,311.418,191.928,312.922Z" transform="translate(-111.19 -298.757)" fill="#f0e4d6"/>
              </g>
              <g id="Group_5937" data-name="Group 5937" transform="translate(69.323 54.538)">
                <path id="Path_30713" data-name="Path 30713" d="M169.73,317.361s7.737-14.1,14.038-11.484,1.481,22.367-5.218,25.726a7.143,7.143,0,0,1-9.93-2.782Z" transform="translate(-168.62 -305.553)" fill="#d7a385"/>
                <path id="Path_30714" data-name="Path 30714" d="M180.124,308.175a.1.1,0,0,1,.057.182c-4.678,2.516-6.76,7.335-8.055,12.237,1.258-1.969,3.134-3.177,5.75-1.71.136.077.036.291-.1.277a4.394,4.394,0,0,0-4.642,2.046,21.137,21.137,0,0,0-1.878,4.14c-.182.463-1,.313-.886-.209l.027-.116C169.591,318.794,173.49,309.531,180.124,308.175Z" transform="translate(-166.499 -302.224)" fill="#c47c8a"/>
              </g>
            </g>
          </g>
          <g id="Group_5941" data-name="Group 5941" transform="translate(229.215 116.803)">
            <g id="Group_5940" data-name="Group 5940" transform="translate(1.959 4.729)">
              <path id="Path_30715" data-name="Path 30715" d="M284.713,440.232c-4.823,16.979-43.018-4.144-51.636-13.393-10.164-10.868-29.344-27.541-41.4-40.75a85.575,85.575,0,0,1-8.08-10.021c-8.8-13.559-14.94-33.442-4.66-40.116,4.1-2.671,13.514,1.217,18.968,3.958,13.35,6.651,27.681,17.658,40.773,30.068C266.074,395.926,288.133,428.149,284.713,440.232Z" transform="translate(-173.568 -335.055)" fill="#ffccac" stroke="rgba(0,0,0,0)" stroke-width="1"/>
              <path id="Path_30716" data-name="Path 30716" d="M238.674,369.978a93.372,93.372,0,0,0-47,16.112,85.579,85.579,0,0,1-8.08-10.021c-8.8-13.559-14.94-33.442-4.66-40.116,4.1-2.671,13.514,1.217,18.968,3.958C211.252,346.561,225.583,357.567,238.674,369.978Z" transform="translate(-173.568 -335.055)" fill="#ffccac" stroke="rgba(0,0,0,0)" stroke-width="1"/>
            </g>
            <path id="Path_30717" data-name="Path 30717" d="M188.407,387.078c1.969-.055,12.226-18.9,39.09-26.457,2.493-.7-21.607-21.155-40.931-26.753-15.653-4.535-14.567,8.983-13.037,21.963C175.411,371.816,185.65,387.158,188.407,387.078Z" transform="translate(-172.705 -332.973)" fill="#f0e4d6"/>
          </g>
          <g id="Group_5943" data-name="Group 5943" transform="translate(139.416 164.327)">
            <path id="Path_30718" data-name="Path 30718" d="M232.512,414.258c-17.517-5.75-36.724-15.3-52.79-23.174-8.173-4.006-2.968-25.388,9.565-25.183,30.888.5,61.228-1.326,79.436,15.444,10.721,9.871,15.069,12.88,12.762,21.711C277.542,418.148,260.561,423.461,232.512,414.258Z" transform="translate(-78.994 -338.653)" fill="#ffccac"/>
            <path id="Path_30719" data-name="Path 30719" d="M228.475,370.926l-24.731-2.339s-10.271-5.455-20.721-6.1-24.852,5.668-25.395,13.734,3.265,5.348,7.753,5.731,14.211,7.557,21.334,7.414c0,0,2.3.929,8.725,3.238s27.207,11.041,27.207,11.041S238.074,389.693,228.475,370.926Z" transform="translate(-102.133 -343.052)" fill="#ffccac"/>
            <path id="Path_30720" data-name="Path 30720" d="M223.087,382.223a4.1,4.1,0,0,0-5.854-.6,3.124,3.124,0,0,0,.892,5.148c1.662.733,3.726-1.1,2.471-2.814-.193-.266-.572.068-.438.386.472,1.136-1.047,1.63-1.755,1.013a1.788,1.788,0,0,1-.466-1.976,2.081,2.081,0,0,1,2.548-1.079,3.064,3.064,0,0,1,2.139,2.114,4.135,4.135,0,0,1-.8,3.186c-.132.218.157.522.347.4A4.141,4.141,0,0,0,223.087,382.223Z" transform="translate(-27.569 -319.916)" fill="#c47c8a"/>
            <path id="Path_30721" data-name="Path 30721" d="M255.7,386.777a54.442,54.442,0,0,0-26.507-17.306c-12.281-3.354-25.9-3.52-38.549-3.556a.1.1,0,0,0,0,.191c12.178,1.033,24.345,1.476,36.281,4.385,11.384,2.775,19.42,9.612,28.369,16.693A.288.288,0,0,0,255.7,386.777Z" transform="translate(-60.233 -338.633)" fill="#d7a385"/>
            <g id="Group_5942" data-name="Group 5942">
              <path id="Path_30722" data-name="Path 30722" d="M153.354,370.1s7.23-2.114,9.587-2.069,19.209,11.543,19.836,12.932-.386,7.914-.386,7.914" transform="translate(-107.498 -335.948)" fill="none" stroke="#2a443e" stroke-linecap="round" stroke-linejoin="round" stroke-width="2"/>
              <path id="Path_30723" data-name="Path 30723" d="M247.547,435.853c-7.407,10.814-38.663,2.282-69.812-19.054s-50.4-47.4-42.989-58.21,38.661-2.282,69.812,19.054S254.952,425.042,247.547,435.853Z" transform="translate(-133.161 -353.901)" fill="#acb9a2" opacity="0.5"/>
              <path id="Path_30724" data-name="Path 30724" d="M247.547,435.853c-7.407,10.814-38.663,2.282-69.812-19.054s-50.4-47.4-42.989-58.21,38.661-2.282,69.812,19.054S254.952,425.042,247.547,435.853Z" transform="translate(-133.161 -353.901)" fill="none" stroke="#acb9a2" stroke-miterlimit="10" stroke-width="1"/>
            </g>
          </g>
        </g>
        <g id="Group_5955" data-name="Group 5955" transform="translate(0 117.61)">
          <g id="Group_5947" data-name="Group 5947" transform="translate(151.345)">
            <g id="Group_5945" data-name="Group 5945" opacity="0.5">
              <path id="Path_30725" data-name="Path 30725" d="M118.085,360.267c1.1,8.938,7.585,15.893,15.074,20.322,4.374,2.6,9.964,3.461,13.929,6.653,3.733,2.993,5.021,8.052,4.487,12.651-1.181,10.194-10.473,17.583-17.435,24.166-10.725,10.141-24.207,25.958-15.523,41.6,4.06,7.31,12.026,12.138,19.581,15.137,8.438,3.345,17.517,4.716,26.557,5.153,10.457.5,22.145-.99,28.824,8.92,5.975,8.836,5.4,15.28,2.2,24.85,0,0,2.664.672,2.873.4,3.068-4.01,7.046-12.076,8.872-16.731,4.087-9.576,5.148-19.659-3.161-28-4.864-4.891-11.379-7.594-16.94-11.538-7.214-5.107-10.791-12.192-8.052-21.041,2.827-9.145,10.06-15.848,14.506-24.15a25.074,25.074,0,0,0,.466-23.966,39.245,39.245,0,0,0-15.637-16.438c-7.614-4.36-15.832-5.157-24.441-5.38-9.717-.266-21.414-.833-27.4-9.781-5.856-8.758-3.615-19.929-1.169-29.409a.3.3,0,0,0-.556-.2C121.3,341.839,116.927,350.784,118.085,360.267Z" transform="translate(-115.837 -333.328)" fill="url(#linear-gradient)"/>
            </g>
            <path id="Path_30726" data-name="Path 30726" d="M252.817,403.727s-3.788,55.476-21.5,55.476H137.584c-17.706,0-21.493-55.476-21.493-55.476Z" transform="translate(-115.515 -243.864)" fill="#374757"/>
            <g id="Group_5946" data-name="Group 5946" transform="translate(15.845 167.591)">
              <line id="Line_96" data-name="Line 96" x2="45.275" transform="translate(0 5.269)" fill="none" stroke="#acb9a2" stroke-linecap="round" stroke-linejoin="round" stroke-width="2"/>
              <rect id="Rectangle_1826" data-name="Rectangle 1826" width="35.127" height="10.538" transform="translate(1.561)" fill="#ffccac" stroke="rgba(0,0,0,0)" stroke-width="1"/>
            </g>
          </g>
          <g id="Group_5949" data-name="Group 5949" transform="translate(149.643 216.943)">
            <g id="Group_5948" data-name="Group 5948">
              <path id="Path_30727" data-name="Path 30727" d="M115.088,442.622l7.8-13.758H248.572l7.8,13.758" transform="translate(-115.088 -428.863)" fill="none" stroke="#2a443e" stroke-miterlimit="10" stroke-width="2"/>
              <path id="Path_30728" data-name="Path 30728" d="M124.944,442.622l5.328-13.758h85.864l5.328,13.758" transform="translate(-102.562 -428.863)" fill="none" stroke="#2a443e" stroke-miterlimit="10" stroke-width="2"/>
            </g>
          </g>
          <g id="Group_5951" data-name="Group 5951" transform="translate(8.361 216.943)">
            <g id="Group_5950" data-name="Group 5950">
              <path id="Path_30729" data-name="Path 30729" d="M52.871,442.622l7.8-13.758H186.355l7.8,13.758" transform="translate(-52.871 -428.863)" fill="none" stroke="#2a443e" stroke-miterlimit="10" stroke-width="2"/>
              <path id="Path_30730" data-name="Path 30730" d="M62.727,442.622l5.328-13.758h85.864l5.328,13.758" transform="translate(-40.346 -428.863)" fill="none" stroke="#2a443e" stroke-miterlimit="10" stroke-width="2"/>
            </g>
          </g>
          <rect id="Rectangle_1827" data-name="Rectangle 1827" width="451.972" height="7.726" transform="translate(0 228.36)" fill="#374757"/>
          <g id="Group_5952" data-name="Group 5952" transform="translate(24.617 194.455)">
            <path id="Path_30731" data-name="Path 30731" d="M101.612,426.219l48.15,3,0-10.148-48.15-.112Z" transform="translate(-7.189 -418.959)" fill="#2a443e"/>
            <path id="Path_30732" data-name="Path 30732" d="M60.03,418.98s3.688,20.294,11.125,20.294l39.733-.009,39.735-.009c7.437,0,11.116-20.3,11.116-20.3Z" transform="translate(-60.03 -418.96)" fill="#ce4d35"/>
          </g>
          <g id="Group_5953" data-name="Group 5953" transform="translate(351.136 159.864)">
            <path id="Path_30733" data-name="Path 30733" d="M291.275,417.2v44.862a5.848,5.848,0,0,1-5.829,5.831l-37.9-.034H209.616a5.792,5.792,0,0,1-5.8-5.8V417.2a5.792,5.792,0,0,1,5.8-5.8h3.5v-4.244h34.432v-.032l34.4.032v4.244h3.5A5.819,5.819,0,0,1,291.275,417.2Z" transform="translate(-203.819 -399.402)" fill="#df9f70"/>
            <rect id="Rectangle_1828" data-name="Rectangle 1828" width="73.691" height="7.552" transform="translate(6.842)" fill="#ce4d35"/>
            <rect id="Rectangle_1829" data-name="Rectangle 1829" width="87.457" height="28.343" transform="translate(0 27.315)" fill="#f0e4d6"/>
          </g>
          <g id="Group_5954" data-name="Group 5954" transform="translate(315.001 173.445)">
            <path id="Path_30734" data-name="Path 30734" d="M219.852,420.514v35.965c0,2.571-.958,4.676-2.13,4.676l-13.843-.027H190.025c-1.172,0-2.119-2.078-2.119-4.648V420.514c0-2.573.947-4.648,2.119-4.648H191.3v-3.4h12.576v-.025l12.564.025v3.4h1.278C218.894,415.866,219.852,417.941,219.852,420.514Z" transform="translate(-187.906 -406.24)" fill="#3a6b5f"/>
            <rect id="Rectangle_1830" data-name="Rectangle 1830" width="26.916" height="6.055" transform="translate(2.5)" fill="#ce4d35"/>
            <rect id="Rectangle_1831" data-name="Rectangle 1831" width="31.944" height="22.723" transform="translate(0.001 21.899)" fill="#f0e4d6"/>
          </g>
        </g>
      </g>
    </g>
  </g>
</svg>
