<svg xmlns="http://www.w3.org/2000/svg" width="21" height="21.827" viewBox="0 0 21 21.827">
  <g id="Group_5684" data-name="Group 5684" transform="translate(-19.682 -13.223)">
    <g id="Group_5080" data-name="Group 5080" transform="translate(19.682 13.223)">
      <g id="Group_5079" data-name="Group 5079" transform="translate(0.014 0.071)">
        <g id="Group_5078" data-name="Group 5078">
          <g id="Group_5077" data-name="Group 5077">
            <path id="Path_30611" data-name="Path 30611" d="M49.206,56.842c-1.089-.924-2.149-1.877-3.164-2.859-1.163-1.13-2.293-2.31-3.358-3.523,1.213,1.2,2.491,2.343,3.807,3.44,1.011.841,2.038,1.642,3.09,2.417.243.186.5.367.747.549.437.318.883.631,1.332.924.54.375,1.085.734,1.633,1.085.4.248.784.495,1.188.742,1.411.85,2.867,1.683,4.319,2.376l.05,1.93c-1.5-.85-3.572-2.454-4.95-3.428-.379-.264-.755-.54-1.122-.821-.54-.4-1.073-.8-1.6-1.221-.425-.334-.858-.681-1.275-1.027C49.663,57.234,49.432,57.044,49.206,56.842Z" transform="translate(-38.654 -46.094)" fill="#488c1c"/>
            <path id="Path_30612" data-name="Path 30612" d="M54.585,53.756c-.3,5.416-4.389,7.256-4.463,5.75,0,0-3.333,2.615-4.777,1.794-1.365-.775.021-1.765.182-1.881-.252.012-2.636.21-3.415-1.105-.817-1.382,3.073-2.145,3.073-2.145s-3.626-2.718,1.489-3.411a13.015,13.015,0,0,0,5.02-.252Z" transform="translate(-40.796 -39.704)" fill="#488c1c"/>
            <path id="Path_30613" data-name="Path 30613" d="M45.2,58.3a13.271,13.271,0,0,0-.227-2.991l-.008-.041c-.92-5.053,2.372-1.229,2.372-1.229s.734-5.862,2.265-4.4,1.023,4.381,1.023,4.381,1.328-1.732,2.133-.846S51.6,56.809,51.6,56.809c2.5-.54-.334,4.492-4.488,4.847l-1.9-3.358Z" transform="translate(-32.027 -49.402)" fill="#488c1c"/>
            <path id="Path_30614" data-name="Path 30614" d="M45.394,54.242a10.432,10.432,0,0,1-3.461-2.623l.545-.4a7.584,7.584,0,0,0,5.911.4c1.015.982,2.075,1.935,3.164,2.859.227.2.458.392.7.586.417.346.85.693,1.275,1.027l0,.008q-.848.26-1.621.433a13.015,13.015,0,0,1-5.02.252C44.156,56.312,43.463,54.745,45.394,54.242Z" transform="translate(-41.001 -43.729)" fill="#63aa35"/>
            <path id="Path_30615" data-name="Path 30615" d="M52.634,59.425c-1.052-.775-2.079-1.576-3.09-2.417-1.316-1.1-2.595-2.24-3.807-3.44,1.064,1.213,2.194,2.392,3.358,3.523a7.584,7.584,0,0,1-5.911-.4l-.545.4a1.322,1.322,0,0,1,.421-2.042s-2.285-4.191-.916-5.383c1.65-.924,4.459,1.683,4.459,1.683,1.654-5.622,5.259,3.288,5.259,3.288,1.662-1.724,2.446-1.019,2.784.429l.008.041a13.271,13.271,0,0,1,.227,2.991h0c-.021,1.5-.173,2.8-.173,2.8-.45-.293-.9-.606-1.332-.924C53.129,59.792,52.877,59.61,52.634,59.425Z" transform="translate(-41.707 -49.201)" fill="#63aa35"/>
          </g>
        </g>
      </g>
      <path id="Path_30616" data-name="Path 30616" d="M42.115,58.148a.725.725,0,0,1-.1-.524.93.93,0,0,1,.276-.462,3.092,3.092,0,0,1,.891-.577,10.154,10.154,0,0,1,2.025-.643l-.025.091a4.4,4.4,0,0,1-.982-1.048,1.245,1.245,0,0,1-.107-1.382,2.218,2.218,0,0,1,1.209-.755,8.436,8.436,0,0,1,1.4-.3l0,.054a14.012,14.012,0,0,0-1.312.528,2.032,2.032,0,0,0-.924.714c-.148.243-.045.524.173.862a4.667,4.667,0,0,0,.854.912l.759.639-.949.19a15.569,15.569,0,0,0-1.968.487,3.937,3.937,0,0,0-.874.4.643.643,0,0,0-.3.788Z" transform="translate(-40.785 -39.495)" fill="#5cb523"/>
      <path id="Path_30617" data-name="Path 30617" d="M54.535,52.8a8.848,8.848,0,0,1-1.217,4.166,5.608,5.608,0,0,1-1.464,1.621,2.684,2.684,0,0,1-.99.474.918.918,0,0,1-.557-.033.522.522,0,0,1-.285-.478l.045.029a13.982,13.982,0,0,1-1.609,1.072,7.6,7.6,0,0,1-1.782.775,2.476,2.476,0,0,1-.969.091,1.533,1.533,0,0,1-.85-.462.765.765,0,0,1-.078-.932,2.369,2.369,0,0,1,.681-.693l.012.045a6.02,6.02,0,0,1-1.881-.115,2.353,2.353,0,0,1-1.563-.99l.033-.021a2.287,2.287,0,0,0,1.563.87,6.589,6.589,0,0,0,1.823.025l.763-.087-.623.466a2.086,2.086,0,0,0-.577.631.463.463,0,0,0,.07.6,1.31,1.31,0,0,0,.322.243,1.1,1.1,0,0,0,.351.115,2.261,2.261,0,0,0,.846-.1,7.347,7.347,0,0,0,1.691-.759c.532-.326,1.081-.664,1.576-1.039l.445-.338.045.561c.012.12.033.157.091.19a.592.592,0,0,0,.351.017,2.222,2.222,0,0,0,.874-.408A5.8,5.8,0,0,0,53.1,56.832,9.392,9.392,0,0,0,54.5,52.8Z" transform="translate(-40.69 -38.72)" fill="#36661c"/>
      <path id="Path_30618" data-name="Path 30618" d="M44.362,52.491q1.466.6,2.908,1.25l-.016.033a3.077,3.077,0,0,1-.817-.1c-.26-.058-.5-.169-.751-.243-.235-.132-.474-.231-.7-.379a2.9,2.9,0,0,1-.635-.524Z" transform="translate(-33.433 -39.679)" fill="#5cb523"/>
      <path id="Path_30619" data-name="Path 30619" d="M44.355,56.06a18.288,18.288,0,0,0-.2-3.176,11.269,11.269,0,0,0-.875-3.077,11.3,11.3,0,0,1,1.134,3.028,19.13,19.13,0,0,1,.474,3.226Z" transform="translate(-36.783 -48.067)" fill="#488c1c"/>
      <path id="Path_30620" data-name="Path 30620" d="M48.121,51.829a5.953,5.953,0,0,1-1.555.314,7.8,7.8,0,0,1-1.551-.041,8.95,8.95,0,0,1-2.908-.907,8.876,8.876,0,0,0,2.933.643,7.446,7.446,0,0,0,1.485-.091,5.476,5.476,0,0,0,1.382-.4Z" transform="translate(-40.443 -43.733)" fill="#488c1c"/>
      <path id="Path_30621" data-name="Path 30621" d="M44.3,55.091a6.389,6.389,0,0,0,.309-1.007,9.1,9.1,0,0,0,.186-1.064,12.437,12.437,0,0,0,.062-2.182,12.55,12.55,0,0,1,.2,2.194c0,.371-.016.747-.054,1.122a7.653,7.653,0,0,1-.206,1.126Z" transform="translate(-33.599 -44.845)" fill="#488c1c"/>
      <path id="Path_30622" data-name="Path 30622" d="M48.669,52.4a10.518,10.518,0,0,1-2.875.726,5.611,5.611,0,0,1-2.879-.392,5.415,5.415,0,0,0,2.842.124,10.242,10.242,0,0,0,2.681-.936Z" transform="translate(-37.918 -41.458)" fill="#488c1c"/>
      <path id="Path_30623" data-name="Path 30623" d="M45.369,61.458a5.986,5.986,0,0,0,2.009-.689,8.149,8.149,0,0,0,1.7-1.242A6.376,6.376,0,0,0,50.3,57.873a1.359,1.359,0,0,0,.181-.837c-.025-.082-.049-.1-.161-.136a1.074,1.074,0,0,0-.4.029l-.755.169.441-.643a14.543,14.543,0,0,0,.825-1.382,4.068,4.068,0,0,0,.487-1.431.572.572,0,0,0-.177-.524.483.483,0,0,0-.491-.058,3.172,3.172,0,0,0-1.167.92l-.582.66.157-.846a7.623,7.623,0,0,0,.054-2.252,3.661,3.661,0,0,0-.858-2.071l.025-.025a3.81,3.81,0,0,1,1.011,2.067,7.457,7.457,0,0,1,.025,2.326l-.041-.021a3.283,3.283,0,0,1,1.275-1.048.8.8,0,0,1,.808.116.905.905,0,0,1,.293.767,4.356,4.356,0,0,1-.507,1.58,13.109,13.109,0,0,1-.858,1.419l-.033-.054a1.3,1.3,0,0,1,.549-.017.506.506,0,0,1,.4.371,1.688,1.688,0,0,1-.215,1.056,6.251,6.251,0,0,1-1.341,1.7,6.683,6.683,0,0,1-3.873,1.778Z" transform="translate(-30.249 -49.195)" fill="#36661c"/>
      <path id="Path_30624" data-name="Path 30624" d="M49.616,49.669a.551.551,0,0,0-.578-.082,1.057,1.057,0,0,0-.338.479,5.7,5.7,0,0,0-.392,1.3c-.078.458-.2.9-.272,1.365s-.128.936-.2,1.382l-.157,1.06-.668-.808a7.276,7.276,0,0,0-.883-.9,1.767,1.767,0,0,0-.763-.421c-.045-.012-.153.14-.194.322a3.791,3.791,0,0,0-.095.611c-.054.437-.033.887-.045,1.349l-.05.008a9.835,9.835,0,0,1-.177-1.345,3.432,3.432,0,0,1,.029-.681.866.866,0,0,1,.318-.606.752.752,0,0,1,.689.021,3.34,3.34,0,0,1,.577.367,7.82,7.82,0,0,1,.99.928l-.091.033a18.627,18.627,0,0,1,.59-2.8,5.97,5.97,0,0,1,.544-1.324,1.223,1.223,0,0,1,.524-.5.657.657,0,0,1,.677.21Z" transform="translate(-32.021 -49.385)" fill="#5cb523"/>
      <path id="Path_30625" data-name="Path 30625" d="M44.935,51.546a4.324,4.324,0,0,1,.681.726c.2.256.355.536.532.8.14.293.3.569.421.875a4.422,4.422,0,0,1,.272.949l-.029.021q-.978-1.664-1.91-3.358Z" transform="translate(-31.708 -42.633)" fill="#5cb523"/>
      <path id="Path_30626" data-name="Path 30626" d="M47.1,53.247l.058.961-.008.969-.07,0a1.4,1.4,0,0,1-.487-.47,1.139,1.139,0,0,1-.144-.483,1.114,1.114,0,0,1,.12-.487,1.364,1.364,0,0,1,.462-.5Z" transform="translate(-26.877 -37.317)" fill="#36661c"/>
      <path id="Path_30627" data-name="Path 30627" d="M45.208,60.13a4.163,4.163,0,0,0,.743-.986,9.623,9.623,0,0,0,.573-1.192,17.524,17.524,0,0,0,.8-2.586,34.306,34.306,0,0,0,.73-5.408,34.359,34.359,0,0,1-.384,5.478,17.208,17.208,0,0,1-.644,2.7,9.8,9.8,0,0,1-.528,1.3,4.573,4.573,0,0,1-.837,1.242Z" transform="translate(-30.752 -47.595)" fill="#36661c"/>
      <path id="Path_30628" data-name="Path 30628" d="M52.393,52.989A6.913,6.913,0,0,1,50.4,54.85a11.633,11.633,0,0,1-2.376,1.163,18.141,18.141,0,0,1-5.115.978,18.054,18.054,0,0,0,4.983-1.308,11.088,11.088,0,0,0,2.2-1.27,6.547,6.547,0,0,0,1.683-1.765Z" transform="translate(-37.933 -39.192)" fill="#36661c"/>
      <path id="Path_30629" data-name="Path 30629" d="M49.236,54.659a19.65,19.65,0,0,0-3.118-1.134,18.838,18.838,0,0,0-3.288-.606,20.145,20.145,0,0,1,6.555,1.419Z" transform="translate(-38.183 -38.345)" fill="#36661c"/>
      <path id="Path_30630" data-name="Path 30630" d="M46.7,53.667a11.436,11.436,0,0,1-1.588,2.1,5.37,5.37,0,0,1-2.137,1.46,5.383,5.383,0,0,0,2-1.576,11.144,11.144,0,0,0,1.407-2.141Z" transform="translate(-37.73 -36.508)" fill="#36661c"/>
      <path id="Path_30631" data-name="Path 30631" d="M46.667,53.165a7.761,7.761,0,0,1-.907,2.211,5.394,5.394,0,0,1-1.617,1.712,5.268,5.268,0,0,0,1.456-1.8,7.264,7.264,0,0,0,.722-2.182Z" transform="translate(-34.08 -37.767)" fill="#36661c"/>
      <path id="Path_30632" data-name="Path 30632" d="M47.218,54.626c-.4-.652-.771-1.312-1.126-1.988a13.005,13.005,0,0,1-.912-2.087,12.9,12.9,0,0,0,1.064,2c.4.639.829,1.266,1.266,1.881Z" transform="translate(-30.84 -45.745)" fill="#36661c"/>
      <path id="Path_30633" data-name="Path 30633" d="M45.753,53.095a11.35,11.35,0,0,0,3.271-2.529,9.889,9.889,0,0,1-1.411,1.555A12.542,12.542,0,0,1,45.922,53.4Z" transform="translate(-29.049 -45.695)" fill="#36661c"/>
      <path id="Path_30634" data-name="Path 30634" d="M45.6,52.987a8.6,8.6,0,0,0,1.877-.483,4.688,4.688,0,0,0,1.646-1.039,4.625,4.625,0,0,1-1.58,1.2,8.235,8.235,0,0,1-1.889.672Z" transform="translate(-29.54 -42.886)" fill="#36661c"/>
      <path id="Path_30635" data-name="Path 30635" d="M42.641,53.347a6.874,6.874,0,0,0,2.953.52,11,11,0,0,0,3.032-.5,13.945,13.945,0,0,0,1.609-.619l-.825-.256a14.262,14.262,0,0,1-3.741.293c-.235-.017-.462-.045-.693-.078Z" transform="translate(-38.774 -39.686)" fill="#a9c994" style="mix-blend-mode: multiply;isolation: isolate"/>
      <path id="Path_30636" data-name="Path 30636" d="M42.2,49.548a1.631,1.631,0,0,0-.268,1.291,5.728,5.728,0,0,0,.371,1.332,15.115,15.115,0,0,0,1.213,2.508l.206.347-.359.28a1.308,1.308,0,0,0-.4.466.639.639,0,0,0-.041.437,2.478,2.478,0,0,0,.792,1.072A9.226,9.226,0,0,0,45,58.218c.454.289.949.54,1.407.792l1.448.792-1.563.375a2.36,2.36,0,0,0-.491.186.636.636,0,0,0-.161.136c-.008-.008-.008.07.082.186a1.6,1.6,0,0,0,.4.334,6.857,6.857,0,0,0,2.5.73,13.683,13.683,0,0,0,2.788.017,24.989,24.989,0,0,0,2.838-.371l.021.062a16.2,16.2,0,0,1-5.684.825,6.52,6.52,0,0,1-2.788-.718,2.11,2.11,0,0,1-.573-.462.892.892,0,0,1-.243-.709.948.948,0,0,1,.45-.6,2.525,2.525,0,0,1,.685-.28l-.012.128a12.493,12.493,0,0,1-2.826-1.881,3.042,3.042,0,0,1-.945-1.419,1.191,1.191,0,0,1,.132-.854,1.961,1.961,0,0,1,.6-.619l-.021.066a14.869,14.869,0,0,1-1.089-2.665,5.885,5.885,0,0,1-.252-1.423,1.684,1.684,0,0,1,.45-1.345Z" transform="translate(-41.704 -49.033)" fill="#7dc435"/>
      <path id="Path_30637" data-name="Path 30637" d="M45.687,56.419c.037-.169.074-.342.1-.516a13.419,13.419,0,0,0,.256-2.562,7.385,7.385,0,0,0-.144-1.4c-.115-.726-.615-1.741-.965-1.666-.12.029-.128.516-.132.759,0,.33.091,1.518.091,1.518a8.263,8.263,0,0,1,.149.9,18,18,0,0,1,.1,2.058Z" transform="translate(-32.015 -46.61)" fill="#c3dab4" style="mix-blend-mode: multiply;isolation: isolate"/>
      <path id="Path_30638" data-name="Path 30638" d="M54.367,60.911c0-.825.012-1.642-.021-2.45a22.881,22.881,0,0,0-.186-2.409,6.644,6.644,0,0,0-.264-1.138,1.648,1.648,0,0,0-.487-.8c-.153-.111-.4-.066-.7.116a4.215,4.215,0,0,0-.833.722l-.466.491-.276-.631c-.293-.677-.631-1.353-.982-2a12.949,12.949,0,0,0-1.147-1.877,4.415,4.415,0,0,0-.7-.755.871.871,0,0,0-.685-.252,1.242,1.242,0,0,0-.586.557,5.434,5.434,0,0,0-.429.969l-.177.516-.367-.363a10.538,10.538,0,0,0-1.926-1.481,4.2,4.2,0,0,0-1.11-.478,1.879,1.879,0,0,0-1.184.054l-.029-.049a1.9,1.9,0,0,1,1.242-.165,4.43,4.43,0,0,1,1.188.421,9.614,9.614,0,0,1,2.067,1.427l-.062.017a5.674,5.674,0,0,1,.421-1.072,1.556,1.556,0,0,1,.825-.788,1.277,1.277,0,0,1,1.1.314,4.327,4.327,0,0,1,.8.825,18,18,0,0,1,2.2,4l-.078-.021a4.684,4.684,0,0,1,.949-.784,1.09,1.09,0,0,1,1.2-.087A1.989,1.989,0,0,1,54.3,54.8a7.076,7.076,0,0,1,.219,1.209,24.063,24.063,0,0,1-.1,4.9Z" transform="translate(-41.355 -49.184)" fill="#488c1c"/>
      <path id="Path_30639" data-name="Path 30639" d="M51.723,57.291c-.375-.272-.755-.54-1.13-.825-1.357-.928-2.661-1.939-3.968-2.945-.66-.495-1.308-1.011-1.947-1.53-.664-.5-1.3-1.035-1.959-1.547l-.033.041a63.043,63.043,0,0,0,7.6,6.414c.466.33.932.652,1.4.969Z" transform="translate(-38.637 -46.076)" fill="#a9c994" style="mix-blend-mode: multiply;isolation: isolate"/>
      <path id="Path_30640" data-name="Path 30640" d="M42.707,50.447a63.92,63.92,0,0,0,7.631,6.369c1.345.973,2.727,1.885,4.141,2.751s2.854,1.687,4.348,2.413l-.012.033c-.775-.318-1.526-.664-2.281-1.027s-1.477-.771-2.2-1.18c-1.444-.821-2.842-1.753-4.207-2.7-1.336-.99-2.656-2.009-3.906-3.11-.615-.561-1.233-1.126-1.827-1.7-.586-.6-1.151-1.2-1.708-1.819Z" transform="translate(-38.633 -46.067)" fill="#4d9e35"/>
      <path id="Path_30641" data-name="Path 30641" d="M58.863,63.948c-1.522-.9-2.925-1.968-4.352-2.991s-2.854-2.062-4.22-3.176a64.031,64.031,0,0,1-7.606-7.314l.029-.021q.928.941,1.889,1.84c.639.611,1.27,1.209,1.926,1.8,1.3,1.171,2.611,2.335,3.989,3.42,1.341,1.13,2.743,2.174,4.154,3.226l2.087,1.621c.693.54,1.386,1.085,2.116,1.559Z" transform="translate(-38.637 -46.067)" fill="#7dc435"/>
    </g>
  </g>
</svg>
