<svg width="0" height="0" class="hidden">
  <symbol xmlns="http://www.w3.org/2000/svg" viewBox="0 0 15.65 15.62" id="category">
    <title>category</title>
    <path d="M0 0h6.65v6.62H0zm0 9h6.65v6.62H0zm9-9h6.65v6.62H9zm0 9h6.65v6.62H9z"></path>
  </symbol>
  <symbol xmlns="http://www.w3.org/2000/svg" viewBox="0 0 17.32 16.03" id="cooking-method">
    <title>cooking-method</title>
    <path d="M2 9.23V7.39l-.27-.07a.67.67 0 01-.41-.85.66.66 0 01.57-.47H15.2c.46 0 .74.21.78.57a.68.68 0 01-.45.73c-.08 0-.2.13-.21.2v1.7a1.33 1.33 0 00.7-.77.66.66 0 01.84-.43.69.69 0 01.19.1.65.65 0 01.21.8 2.52 2.52 0 01-1.68 1.59.32.32 0 00-.27.38v3.6A1.35 1.35 0 0114.13 16a.86.86 0 01-.32 0H3.52A1.33 1.33 0 012 14.85a1 1 0 010-.34v-3.57c0-.24-.05-.35-.3-.43A2.53 2.53 0 01.1 9.05a.69.69 0 01.23-1h.08a.66.66 0 01.88.35.42.42 0 010 .1 1.28 1.28 0 00.71.73zm7.88-7.62c.6-.08 1.18-.14 1.76-.24a1.7 1.7 0 011.54.4 1.91 1.91 0 001.63.55.61.61 0 01.68.54v.06a.66.66 0 01-.58.71l-7.85 1-5.26.76a.72.72 0 01-.8-.31.67.67 0 01.21-.92.62.62 0 01.3-.09 1.37 1.37 0 00.94-.53c.9-1.26 1.06-1 2.46-1.27l1-.14v-.46A1.36 1.36 0 017 .18C7.44.11 7.9.05 8.37 0A1.35 1.35 0 019.8 1.13c.03.14.05.28.08.48zM7.23 2l1.3-.2v-.44l-1.3.18z"></path>
  </symbol>
  <symbol xmlns="http://www.w3.org/2000/svg" viewBox="0 0 17.87 16.56" id="cuisine">
    <title>cuisine</title>
    <path d="M5 8.18A7.69 7.69 0 019.27 1.7a7.92 7.92 0 00-5.1 6.47h-.74a7.11 7.11 0 011.89-4.94A6.71 6.71 0 0110.12 1V.6L9.68.47a.33.33 0 01-.17-.18s.09-.14.16-.16a2 2 0 011.4 0 .28.28 0 01.16.16c0 .06-.09.14-.15.17a.72.72 0 01-.27.09c-.16 0-.21.07-.19.22V1a7.07 7.07 0 016.67 7.2zm10.57-2.72a3.7 3.7 0 00-2.34-3.07 3.66 3.66 0 012 3.07zM2 12.84v-1.79a.85.85 0 01.37-.73 3.27 3.27 0 011.68-.53A2.94 2.94 0 015.5 10l3.65 1.5h.11a.86.86 0 01.59 1.05 1 1 0 01-.19.34 1 1 0 01-1.21.42c-.42-.14-.83-.3-1.24-.45L7 12.82a.49.49 0 00-.63.27.65.65 0 000 .19.33.33 0 00.26.34l1.47.56.29.12a.81.81 0 00.8-.06c1.44-.83 2.89-1.64 4.34-2.46a1.68 1.68 0 011.12-.21.76.76 0 01.65.86.43.43 0 010 .11 1.31 1.31 0 01-.66.89c-1.27.71-2.53 1.42-3.78 2.15-.34.2-.66.45-1 .66a1.84 1.84 0 01-1.7.2c-1-.36-2-.75-3-1.18A4.63 4.63 0 002.42 15C2.1 15 2 15 2 14.67zm15.87-4.33v.59h-15v-.59zM1.76 12.93v1.61a.42.42 0 01-.36.46H.46a.43.43 0 01-.46-.37v-3.32a.44.44 0 01.4-.48h.88a.44.44 0 01.48.39v1.71zm-.65-1.12a.33.33 0 00.32-.3.31.31 0 00-.31-.33.32.32 0 00-.33.31.34.34 0 00.32.32z"></path>
  </symbol>
  <symbol xmlns="http://www.w3.org/2000/svg" viewBox="0 0 17.46 17.46" id="difficulty">
    <title>difficulty</title>
    <path d="M9.93 6.38v9.84a1.16 1.16 0 01-2.31 0V6.38a1.16 1.16 0 012.31 0zm3.72-3.45v13.38a1.15 1.15 0 01-2.3 0V2.93a1.15 1.15 0 112.3 0zm-7.53 7v6.38a1.16 1.16 0 01-2.31 0V9.93A1.17 1.17 0 015 8.78a1.12 1.12 0 011.12 1.15zm11.34-8.78v15.07a1.15 1.15 0 11-2.3 0V1.15a1.15 1.15 0 112.3 0zM2.3 14v2.3a1.17 1.17 0 01-1.15 1.15A1.17 1.17 0 010 16.31V14a1.17 1.17 0 011.15-1.16A1.07 1.07 0 012.3 14z"></path>
  </symbol>
  <symbol xmlns="http://www.w3.org/2000/svg" viewBox="0 0 12.46 16.58" id="calories">
    <title>calories</title>
    <path d="M12.33 8.12a5.85 5.85 0 00-1.14-2.51 3.54 3.54 0 01-.16 2 10 10 0 01-.9 1.87A6.2 6.2 0 009 6.34a14 14 0 01-1.55-3.09A3.36 3.36 0 018 0a9.86 9.86 0 00-4.2 2.76 5.69 5.69 0 00-1.3 4.8 3.27 3.27 0 01-.81-2.44A8.76 8.76 0 00.06 8.53a7.06 7.06 0 00.49 3.66 11.56 11.56 0 002 2.84 6.9 6.9 0 005.85 1.38 5.59 5.59 0 003-2.27 6.89 6.89 0 001-3.09 12 12 0 00-.07-2.93zm-7.15 7.15a3.42 3.42 0 01-2.28-3 3.54 3.54 0 01.9-2.36 2.16 2.16 0 001 1.63 4.34 4.34 0 01-.32-3 4.6 4.6 0 011.62-2.6 3.65 3.65 0 00.57 2.6 19.67 19.67 0 011.43 2.27 3.27 3.27 0 01.33 2.59 3.71 3.71 0 00.89-3v.08c1.46 2.52-1.38 5.85-4.14 4.79z"></path>
  </symbol>
  <symbol xmlns="http://www.w3.org/2000/svg" viewBox="0 0 17.75 17.52" id="recipe-keys">
    <title>recipe-keys</title>
    <path d="M17.38 8.59a1.45 1.45 0 00-1.13-.51h-3.48A5.91 5.91 0 0013 6.64a2.62 2.62 0 000-.74l4.5-4.5a.37.37 0 000-.53l-.7-.76a.37.37 0 00-.53 0l-4.5 4.49v.06A2.3 2.3 0 0011 4.6a5.92 5.92 0 00-1.86.4A10.15 10.15 0 005.9 7a4.18 4.18 0 00-.78 1.09H1.5A1.51 1.51 0 000 9.58a1.34 1.34 0 000 .2 8.95 8.95 0 0017.73 0 1.48 1.48 0 00-.35-1.19zM5.6 9.07h.31a4.14 4.14 0 00-.38.72 2.93 2.93 0 01.07-.72zm5.28-1h-.75l1.68-1.69a9.69 9.69 0 01-.64 1.24zm-4.27 3.52l2.52-2.52h1a14 14 0 01-1 1.17 4.06 4.06 0 01-2.56 1.35zm4.64-5.76L9 8.08H7.83A16.94 16.94 0 0110 6.48a8.62 8.62 0 011.24-.65zM8 9.07l-2 2a2.06 2.06 0 01.12-.7 4.18 4.18 0 01.71-1.27H8zm1.72 1.73a14.84 14.84 0 001.44-1.73h.35a8.32 8.32 0 01-1.41 2.1 3.13 3.13 0 01-2 .94h-.25a6.21 6.21 0 001.88-1.31zm2.1-2.72l.11-.18.12-.2c0 .12-.08.25-.13.38zm-5.35-.53a9 9 0 013-1.78l.52-.18-.2.12a16.46 16.46 0 00-2.9 2.21l-.16.16H6a3.19 3.19 0 01.43-.54zm10.28 2.1a8 8 0 01-.68 2.3c-.8.36-1.82.88-3.12 1.58-1.9 1-4.14 1.06-7-1.13a7.72 7.72 0 00-4.68-1.53A8.55 8.55 0 011 9.65a.52.52 0 01.12-.4.53.53 0 01.38-.18h3.29a3.44 3.44 0 000 .45 3.11 3.11 0 002.79 3.38h.54a4 4 0 002.54-1.17 9.57 9.57 0 001.73-2.67h3.87a.53.53 0 01.38.18.51.51 0 01.11.4z"></path>
  </symbol>
  <symbol xmlns="http://www.w3.org/2000/svg" viewBox="0 0 25.75 17.69" id="season">
    <title>season</title>
    <path d="M9.36 9.26a7.21 7.21 0 011.85-2.87 3.63 3.63 0 00-6.58 3.06 3.72 3.72 0 001.48 1.67 5.1 5.1 0 013.25-1.86zM8 3.15a.83.83 0 00.83-.83V.83A.83.83 0 008 0a.91.91 0 00-1 .83v1.39a1 1 0 001 .93zM3.33 4.54a.45.45 0 00.56.18 1 1 0 00.65-.27.76.76 0 00.09-1.12l-1-1a.79.79 0 00-1.2 0 .86.86 0 000 1.2zm-.18 3.33A.83.83 0 002.32 7H.83a.84.84 0 000 1.67h1.39a.77.77 0 00.93-.8zm1.39 3.43a.8.8 0 00-1.21 0l-1 1a.79.79 0 000 1.2.81.81 0 00.67.3 1 1 0 00.65-.28l1-1a.87.87 0 00-.09-1.2zM12 4.72a1 1 0 00.65-.27l1-1a.8.8 0 000-1.21.88.88 0 00-1.21 0l-1 1a.8.8 0 000 1.21.58.58 0 00.56.27zm9.67 4.91a1.71 1.71 0 00-.74.1 5.41 5.41 0 00-6.85-3.34 5.22 5.22 0 00-3.52 4.35c-.19 0-.37-.09-.56-.09a3.52 3.52 0 100 7h11.67a4.11 4.11 0 004.08-4.07 4 4 0 00-4.08-3.95zm.19 5.28h-3.43a1 1 0 010-2h.19a1.51 1.51 0 011-1.2 1.55 1.55 0 011.94.93h.19A1.22 1.22 0 0123 13.8a1.12 1.12 0 01-1.14 1.11z"></path>
  </symbol>
  <symbol xmlns="http://www.w3.org/2000/svg" viewBox="0 0 17.05 16.99" id="time">
    <title>time</title>
    <path d="M16.05.87a3 3 0 00-4.23 0 .49.49 0 000 .66l1.41 1.41-.5.5A7.73 7.73 0 008.92 2V1h.49a.54.54 0 00.5-.5.54.54 0 00-.5-.5h-2a.53.53 0 00-.49.5.53.53 0 00.49.5h.5v1.12a6.94 6.94 0 00-3.8 1.49l-.5-.5L5 1.7A.64.64 0 005 1 2.89 2.89 0 002.94.12 2.88 2.88 0 00.87 1a3 3 0 000 4.23.5.5 0 00.58-.08l1.41-1.46.5.5A6.77 6.77 0 001.45 9a6.87 6.87 0 003.24 5.89L4 16.3a.52.52 0 00.25.66.53.53 0 00.67-.25l.66-1.32A6.77 6.77 0 008.5 16a7.79 7.79 0 002.82-.58l.68 1.29a.51.51 0 00.66.25.55.55 0 00.25-.66l-.67-1.41A7.06 7.06 0 0015.47 9a7 7 0 00-1.91-4.81l.5-.5 1.41 1.41a.49.49 0 00.66 0 3 3 0 00.92-2.1 4 4 0 00-1-2.13zM8.42 14a5 5 0 115-5 5 5 0 01-5 5z"></path>
    <path d="M8.42 6a.54.54 0 00-.5.5v2.33L6.1 10.66a.59.59 0 00-.17.33.54.54 0 00.5.5.41.41 0 00.33-.17l2-2A.66.66 0 008.92 9V6.51a.54.54 0 00-.5-.51z"></path>
  </symbol>
  <symbol xmlns="http://www.w3.org/2000/svg" viewBox="0 0 17.3 15.64" id="yield">
    <title>yield</title>
    <path d="M11.75 6.55A3.77 3.77 0 0016 5.5c1.36-1.36 1.89-3.39.61-4.75A2.66 2.66 0 0014.68 0a4.55 4.55 0 00-2.93 1.36 3.92 3.92 0 00-1.06 4.21c-.15.76-1.2 1.66-2.18 2.19a3.78 3.78 0 01-1.73-2.94A2.22 2.22 0 006.17 3 1.19 1.19 0 006 2.86L2.33 0 2 .38l4 3.69-.45.37L1.73.68l-.37.37 3.76 3.77-.3.38-3.77-3.77-.37.23 3.76 3.76-.37.45L.38 2 0 2.41l3 3.76.08.08a2 2 0 001.5.53 3.65 3.65 0 012.87 1.65L1.88 14a.88.88 0 000 1.28l.08.07a.86.86 0 001.28 0l5.42-5.41 5.42 5.42a.85.85 0 001.21-.07.82.82 0 000-1.13S14.16 13.1 13 11.82L9.71 8.58a4.09 4.09 0 012.04-2.03zM11.29 4a2.08 2.08 0 01.16-.75c.07-.15.07-.3.15-.45l.22-.46a2.89 2.89 0 01.68-.67l.68-.46.52-.21c.08 0 .15-.08.23-.08l-.15.15-.38.38-1.13 1.11a.66.66 0 00-.22.38c-.08.15-.15.22-.15.37s-.23.53-.3.68a1.81 1.81 0 00-.15.53v.22c-.16-.07-.16-.15-.16-.22z"></path>
  </symbol>
  <symbol xmlns="http://www.w3.org/2000/svg" viewBox="0 0 13.72 14.84" id="author">
    <title>author</title>
    <path d="M2.49 4.1A4.38 4.38 0 107.14 0h-.28a4.24 4.24 0 00-4.37 4.1zm4.37 10.74H0a6.74 6.74 0 016.86-6.31 6.62 6.62 0 016.86 6.31z"></path>
  </symbol>
  <symbol xmlns="http://www.w3.org/2000/svg" viewBox="0 0 8.74 10.4" id="delete">
    <title>delete</title>
    <path d="M8.55 1.74H6.5c-.06 0-.09 0-.12-.1-.11-.35-.22-.7-.34-1A.76.76 0 005.33 0H3.42a.78.78 0 00-.72.59c-.12.36-.23.71-.34 1.06 0 .07 0 .09-.11.09H.19C.06 1.74 0 1.81 0 2v.41c0 .16.06.23.2.23h.89v6.64a1.06 1.06 0 001 1.12h4.58a.84.84 0 00.62-.25 1.26 1.26 0 00.36-.94V2.6h.89c.15 0 .2-.07.2-.24V2c0-.2-.05-.26-.19-.26zm-5.48-.09c.05-.16.1-.32.16-.49A.39.39 0 013.6.85h1.55a.39.39 0 01.37.31l.16.49v.08H3.05s.01-.06.02-.08zm3.85 5.4v2.07c0 .25-.13.42-.35.42H2.21c-.26 0-.39-.16-.39-.47V2.6h5s.06 0 .06.08z"></path>
    <path d="M4.74 3.76a.18.18 0 00-.16-.2h-.42a.17.17 0 00-.16.17v4.7c0 .14.06.21.19.21h.34c.14 0 .2-.07.2-.22V3.76zm-1.65-.2h-.34c-.14 0-.2.07-.2.22v4.64c0 .15.06.22.2.22h.37a.18.18 0 00.16-.19V3.77c0-.14-.06-.21-.19-.21zm2.91 0h-.35a.18.18 0 00-.18.2v4.67c0 .14.06.21.19.21H6c.15 0 .2-.06.2-.23V3.77c0-.14-.07-.21-.2-.21z"></path>
  </symbol>
  <symbol xmlns="http://www.w3.org/2000/svg" viewBox="0 0 6.56 9.98" id="go-to">
    <title>go-to</title>
    <path d="M6.41 6.14a.48.48 0 00-.7 0L3.78 8.06V.5a.5.5 0 00-1 0v7.56L.85 6.14a.48.48 0 00-.7 0 .48.48 0 000 .7L3.28 10l3.13-3.16a.48.48 0 000-.7z"></path>
  </symbol>
  <symbol xmlns="http://www.w3.org/2000/svg" viewBox="0 0 8.51 8.51" id="image">
    <title>image</title>
    <path d="M7.76 0h-7A.76.76 0 000 .75v7a.76.76 0 00.75.75h7a.76.76 0 00.75-.75v-7A.76.76 0 007.76 0zm.43 7.76a.44.44 0 01-.43.43h-7a.43.43 0 01-.43-.43v-7A.43.43 0 01.75.32h7a.43.43 0 01.43.43z"></path>
    <path d="M6.61 2.17a.67.67 0 10.67.67.67.67 0 00-.67-.67zm-1.54.91a.19.19 0 00-.33 0L4 4a.24.24 0 01-.37 0l-.33-.33a.24.24 0 00-.36 0l-1.67 2.4c-.09.13 0 .27.12.27H7c.15 0 .21-.14.12-.27z"></path>
  </symbol>
  <symbol xmlns="http://www.w3.org/2000/svg" viewBox="0 0 9.23 8.57" id="print">
    <title>print</title>
    <path d="M8.39 2.42H.84a.86.86 0 00-.84.84v2.67a.85.85 0 00.84.84h1v1.32a.33.33 0 000 .17.49.49 0 00.26.27.48.48 0 00.18 0h4.63a.47.47 0 00.44-.3.33.33 0 000-.17V6.78h1a.86.86 0 00.84-.84V3.27a.86.86 0 00-.8-.85zm-1.5 5.65H2.34V5.6h4.55zm1.84-4.8v2.66a.27.27 0 010 .12.44.44 0 01-.19.19H7.42v-.7a.33.33 0 000-.17.47.47 0 00-.44-.3H2.31a.47.47 0 00-.31.17.56.56 0 00-.1.15.47.47 0 000 .17v.7H.78L.6 6.18a.75.75 0 01-.07-.12.27.27 0 010-.12V3.27a.27.27 0 010-.12A.41.41 0 01.6 3a.32.32 0 01.12 0 .27.27 0 01.12 0h7.55a.27.27 0 01.12 0 .28.28 0 01.11 0 .28.28 0 01.08.11.27.27 0 010 .12zM1.78 2.25h.43V.5h3.48v1.15h1.16v.52h.42V1l-1-1H1.78v2.25zM6.19.67l.53.52h-.53z"></path>
  </symbol>
  <symbol xmlns="http://www.w3.org/2000/svg" viewBox="0 0 10 9.98" id="rating">
    <title>rating</title>
    <path fill="#ffe28d" d="M7.14 6.18l.5 3.1L5 7.81 2.35 9.27l.51-3.09-2.14-2.2 2.96-.45L5 .71l1.32 2.82 2.96.45-2.14 2.2z"></path>
    <path d="M10 3.94a.66.66 0 00-.19-.44.69.69 0 00-.34-.17l-2.7-.41L5.55.32a.63.63 0 00-1.09 0l-1.24 2.6-2.5.38H.53a.64.64 0 00-.41.25.6.6 0 00-.12.5.69.69 0 00.17.34l.54.55L2.14 6.4l-.46 2.86a.62.62 0 00.52.74.57.57 0 00.4-.07L5 8.58 7.4 9.9a.54.54 0 00.3.08.61.61 0 00.55-.32.63.63 0 00.07-.4L7.85 6.4l2-2a.63.63 0 00.15-.46zM7.14 6.18l.5 3.1L5 7.81 2.35 9.27l.51-3.09L.72 4l3-.45L5 .71l1.32 2.82 3 .45z" fill="#ffc107"></path>
  </symbol>
  <symbol xmlns="http://www.w3.org/2000/svg" viewBox="0 0 8.48 9.48" id="calendar">
    <title>calendar</title>
    <path d="M7.23 1h-.75V.25a.25.25 0 10-.48 0V1H2.49V.25a.25.25 0 10-.49 0V1h-.75A1.25 1.25 0 000 2.25v6a1.26 1.26 0 001.25 1.23h6a1.26 1.26 0 001.23-1.25v-6A1.25 1.25 0 007.23 1zM8 8.23a.76.76 0 01-.77.77h-6a.75.75 0 01-.73-.77V3.49H8zM8 3H.5v-.75a.74.74 0 01.75-.75h6a.74.74 0 01.75.75z"></path>
    <path d="M2.72 5.56a.45.45 0 100-.9.45.45 0 00-.45.45.46.46 0 00.45.45zm3.06 0a.45.45 0 00.45-.45.46.46 0 00-.46-.45.45.45 0 100 .9zm-1.54 0a.44.44 0 00.46-.44.44.44 0 00-.44-.45.45.45 0 00-.46.44.44.44 0 00.44.45zM2.72 7.47A.45.45 0 003.18 7a.45.45 0 00-.45-.45.45.45 0 00-.46.45.46.46 0 00.45.47zm3.06 0A.45.45 0 006.23 7a.46.46 0 00-.46-.45.45.45 0 100 .9zm-1.54 0A.44.44 0 004.7 7a.44.44 0 00-.44-.45.45.45 0 00-.46.45.44.44 0 00.44.47z"></path>
  </symbol>
  <symbol xmlns="http://www.w3.org/2000/svg" viewBox="0 0 9.91 10.28" id="comment">
    <title>comment</title>
    <path d="M8.34 0H1.57A1.71 1.71 0 000 1.6v4a1.55 1.55 0 00.43 1.15 1.6 1.6 0 001.16.48H2v3l3.05-3h3.29a1.75 1.75 0 001.57-1.59V1.58A1.71 1.71 0 008.34 0zm1.07 5.61a1.24 1.24 0 01-1.09 1.12H4.85L2.51 9.07V6.73h-1a1.06 1.06 0 01-1-1.09v-4A1.2 1.2 0 011.59.5h6.72a1.2 1.2 0 011.1 1.1z"></path>
    <path d="M2.61 3.24a.68.68 0 010 1.35.68.68 0 010-1.35zm4.51 0a.67.67 0 01.67.67.67.67 0 01-1.34 0 .68.68 0 01.67-.68zm-2.24 0a.67.67 0 01.65.68.66.66 0 01-.68.65.67.67 0 01-.65-.69.66.66 0 01.68-.64z"></path>
  </symbol>
  <symbol xmlns="http://www.w3.org/2000/svg" viewBox="0 0 22.13 24" id="details-block">
    <title>details block</title>
    <path d="M1.21 11.54v8.85a1.26 1.26 0 001.42 1.42h7.47a1.56 1.56 0 01.75.25.47.47 0 01.16.4.83.83 0 01-.35.37.94.94 0 01-.38 0H2.8a3 3 0 01-2-.73A2.86 2.86 0 01.09 21 3.23 3.23 0 010 20V2a1.9 1.9 0 012-2h14a1.64 1.64 0 011.87 1.8v9.84c0 .43-.2.58-.6.6s-.58-.21-.57-.61V2.34c0-.69-.28-1-1-1H2.12c-.65 0-.95.34-1 1.13v4.12z"></path>
    <path d="M9.24 7.16H4.73c-.44 0-.66-.15-.67-.59S4.31 6 4.73 6h9a.88.88 0 01.55.16.84.84 0 01.2.67c0 .17-.38.33-.59.34H9.28zm.01 4.95H4.8c-.43 0-.73-.08-.74-.58s.25-.63.7-.63h8.84c.44 0 .78.1.77.62s-.19.59-.62.58zm-2.11 5.06H4.66c-.43 0-.59-.21-.6-.6a.51.51 0 01.57-.57h5.05c.38 0 .66.15.65.57s-.24.61-.67.61H7.14zm14.74 5.58c-.44-.46-.89-.92-1.36-1.36-.23-.21-.51-.39-.79-.6a4.1 4.1 0 00-.55-5.79 4.16 4.16 0 00-5.43.06 4.14 4.14 0 001.7 7.18 3.93 3.93 0 003.42-.64c.71.72 1.37 1.4 2 2.06.3.31.69.44 1 .09a.71.71 0 00.01-1zM17 20.18a.49.49 0 01-1 0V18a.49.49 0 011 0zm-.49-3.25a.49.49 0 110-1 .49.49 0 010 1z"></path>
  </symbol>
  <symbol xmlns="http://www.w3.org/2000/svg" viewBox="0 0 21.37 24" id="dynamic-recipe-card">
    <title>dynamic recipe card</title>
    <path d="M16.57 20.7V24l4.65-4.65h-3.3a1.4 1.4 0 00-1.35 1.35z"></path>
    <path d="M19.87 0H1.42A1.43 1.43 0 000 1.42v21.23A1.36 1.36 0 001.42 24h13.73v-3.3a2.66 2.66 0 01.53-1.65l.44-.53a3.08 3.08 0 012-.74h3.29V1.35A1.53 1.53 0 0019.87 0zM12 21h-.07a.78.78 0 01-.83.75H3a.75.75 0 01-.75-.75V2.93A.76.76 0 013 2.17h8.18a.82.82 0 01.82.76zm7.91-5.87h-6.46a.26.26 0 01-.26-.26.27.27 0 01.26-.27h6.46a.28.28 0 01.27.27.27.27 0 01-.27.26zm-6.72-3.41a.27.27 0 01.26-.27H18a.27.27 0 010 .55h-4.55a.26.26 0 01-.26-.28zm6.72-2.89h-6.46a.27.27 0 010-.53h6.46a.27.27 0 110 .53zm0-3.15h-6.46a.27.27 0 010-.53h6.46a.27.27 0 110 .53z"></path>
    <path d="M9.86 6.27a.31.31 0 00-.52-.19 4 4 0 00-1.12 2.83A13.56 13.56 0 009 13.52L8.68 19c0 .33.28.61.76.61a.74.74 0 00.8-.66l-.38-5.78zm-4.54-1.7c-1 0-1.8 1.14-1.8 2.6s.66 2.46 1.56 2.61l-.38 7.76a.57.57 0 101.14 0l-.38-7.76A2.43 2.43 0 007.1 7.43v-.26c.02-1.42-.79-2.6-1.78-2.6z"></path>
  </symbol>
  <symbol xmlns="http://www.w3.org/2000/svg" viewBox="0 0 20.44 24" id="handpicked-recipe">
    <title>handpicked recipe</title>
    <path d="M20 4.36c-.11-.68-.23-1.36-.35-2 0-.08 0-.18-.15-.18L16.77 2a15.83 15.83 0 01-1.68-.13c-.65-.1-1.3-.25-1.94-.4a21.59 21.59 0 01-2.91-1L8.93 0h-.27a.8.8 0 00-.4 1.3l.07.11h-.12c-.9-.19-1.8-.37-2.7-.57a.81.81 0 00-.59.09.89.89 0 00-.33 1.27.63.63 0 00.41.3l.77.19 2.1.46.13.07-.38.07-3.24.92a.6.6 0 00-.3.14.88.88 0 00-.05 1.39.64.64 0 00.65.26c.37-.07.73-.15 1.09-.24.71-.19 1.42-.43 2.14-.56S9.34 5 10.05 5h.12l-.17.13A3 3 0 008.88 7.6c0 1.06 0 2.12.09 3.18a1.65 1.65 0 00.13.63 1 1 0 00.78.53 1 1 0 00-.16.41 1.07 1.07 0 102.1.37 1 1 0 00-.07-.6h.11c.72-.39 1.43-.77 2.14-1.17.45-.25.87-.54 1.33-.77s.9-.43 1.37-.62a12.25 12.25 0 003.65-2.08.21.21 0 00.09-.2c-.17-1-.33-1.96-.44-2.92zm-9.42 7.13l.24-.59a1 1 0 010 .17v.4a1.23 1.23 0 00-.29.02zm1 .73a.45.45 0 01-.53.37.45.45 0 01-.37-.53.53.53 0 01.15-.26.29.29 0 00.21.3 1.45 1.45 0 00.54.08zm2.58-4.29a.9.9 0 01-.47.61l-1.96 1.09-.54.29c0-.21-.06-.39-.06-.58v-2A.4.4 0 0111.3 7c.31-.24.61-.51.95-.73a1.25 1.25 0 011.86.84 2.21 2.21 0 010 .82zM1 19.8l15.32 2.76c0-.11 0-.22.05-.34a6.26 6.26 0 000-1.09c0-.2 0-.41-.06-.62s-.08-.42-.14-.63a6.13 6.13 0 00-.22-.6 5 5 0 00-.3-.56 4.42 4.42 0 00-.35-.47 4.67 4.67 0 00-.37-.39 4.11 4.11 0 00-.35-.29.21.21 0 00-.08-.06l-.07-.06-.14-.09-.11-.07-.08-.06h-.07.16l.12.06.15.07.08.05.08.05.39.26c.14.1.28.22.43.35s.28.29.42.46a5.89 5.89 0 01.38.55 5.12 5.12 0 01.31.62 5.75 5.75 0 01.23.66c.06.22.11.45.15.66a9.07 9.07 0 01.09 1.2v.42l.74.14c.73-4.07-2.43-8-7.06-8.87S1.75 15.73 1 19.8zm17.55 3.6H.3a.3.3 0 000 .6h18.25a.3.3 0 100-.6zM.77 17.38a1.1 1.1 0 010 .43 1.46 1.46 0 00.23-.43 1.41 1.41 0 00-.05-1 4.55 4.55 0 01-.3-1.05 1.47 1.47 0 010-.43 1.34 1.34 0 00-.3.43 1.48 1.48 0 000 1.05 4.36 4.36 0 01.42 1zm.58-1.48a1.4 1.4 0 010 .43 1.34 1.34 0 00.3-.43 1.45 1.45 0 000-1 4.55 4.55 0 01-.3-1 1.14 1.14 0 010-.43 1.28 1.28 0 00-.31.43 1.48 1.48 0 000 1 4 4 0 01.31 1zm3.59-4.4a1.41 1.41 0 00-.05 1 1.3 1.3 0 00.31.5 1.1 1.1 0 010-.43 4.36 4.36 0 01.3-1 1.45 1.45 0 000-1 1.31 1.31 0 00-.3-.57 1.51 1.51 0 010 .44 4.63 4.63 0 01-.26 1.06z"></path>
  </symbol>
  <symbol xmlns="http://www.w3.org/2000/svg" viewBox="0 0 24 24" id="ingredients">
    <title>ingredients</title>
    <path d="M23.77 9.36a1 1 0 00-1.41-.13L16.64 14H2a1 1 0 00-1 1v4.61A4.4 4.4 0 005.39 24h13.22A4.4 4.4 0 0023 19.61V15a1 1 0 00-1-1h-2.24l3.88-3.23a1 1 0 00.13-1.41zM7 11a1 1 0 00.71-.29l4-4a1 1 0 00.07-1.33l-4-5A1 1 0 007.1 0a1 1 0 00-.74.22l-6 5a1 1 0 00-.36.83 1 1 0 00.45.78l6 4A.92.92 0 007 11zm6-1a1 1 0 10-1-1 1 1 0 001 1z"></path>
    <path d="M13.36 12.17a1 1 0 101-1 1 1 0 00-1 1zM11 11a1 1 0 101 1 1 1 0 00-1-1z"></path>
  </symbol>
  <symbol xmlns="http://www.w3.org/2000/svg" viewBox="0 0 24.97 24" id="instructions">
    <title>instructions</title>
    <path d="M11.78 3.09C9.22 1.14 6.66 0 4.13 0a8.57 8.57 0 00-1.74.18.18.18 0 00-.15.18v14.21a.18.18 0 00.18.18A12.6 12.6 0 0111.08 17H.36V3a.18.18 0 00-.18-.18A.17.17 0 000 3v14.15a.18.18 0 00.18.17h11.46a.17.17 0 00.21-.14V3.23a.17.17 0 00-.07-.14zm13.01-.26a.17.17 0 00-.18.17v14H13.88a12.63 12.63 0 018.63-2.22.17.17 0 00.2-.15V.36a.18.18 0 00-.14-.18A8.59 8.59 0 0020.83 0c-2.52 0-5.08 1.14-7.64 3.09a.17.17 0 00-.07.14v13.92a.18.18 0 00.18.17h11.5a.18.18 0 00.18-.17V3a.18.18 0 00-.19-.17z"></path>
    <path d="M14.87 23.77a5.33 5.33 0 01-4.44-2.6L7.82 17.1s-.93-1.38-1.33-1.91A1.58 1.58 0 016.17 14a1.22 1.22 0 01.55-.84 1.35 1.35 0 01.73-.16 1.36 1.36 0 011.06.5l.33.43A10.49 10.49 0 009.79 15V6.8a1.3 1.3 0 011-1.3 1.14 1.14 0 01.26 0 1.29 1.29 0 011.29 1.28v2.69a1.32 1.32 0 012.53.52v.89a1.32 1.32 0 012.54.51v1.26a1.32 1.32 0 012.51.28v6.24a5.07 5.07 0 01-5.05 4.6z"></path>
    <path d="M11.06 5.71a1.06 1.06 0 011.06 1v6.49a.18.18 0 00.18.18.18.18 0 00.17-.18V10a1.09 1.09 0 112.18 0v3.27a.18.18 0 00.36 0v-1.88a1.09 1.09 0 012.18 0v1.87a.18.18 0 00.36 0v-.1a1.09 1.09 0 012.17 0v5.98a4.86 4.86 0 01-4.83 4.4A5.08 5.08 0 0110.63 21L8 17s-.93-1.37-1.34-1.92a1.14 1.14 0 01.17-1.7 1.07 1.07 0 01.6-.17 1.11 1.11 0 01.88.42 15.84 15.84 0 001.56 1.86h.09c.02 0 0 0 0 0V6.8a1.05 1.05 0 01.83-1.07.75.75 0 01.21 0zm0-.46a1.5 1.5 0 00-1.5 1.56v7.62c-.2-.23-.37-.47-.54-.69l-.33-.43a1.59 1.59 0 00-1.24-.59 1.61 1.61 0 00-.85.28 1.52 1.52 0 00-.64 1 1.84 1.84 0 00.37 1.36c.4.53 1.32 1.89 1.33 1.9l2.6 4.06A5.54 5.54 0 0014.87 24a5.28 5.28 0 005.28-4.82 2.9 2.9 0 000-.43V12.7h-.07a1.55 1.55 0 00-2.43-.7v-.58a1.55 1.55 0 00-2.54-1.19V10a1.55 1.55 0 00-1.55-1.56 1.53 1.53 0 00-1 .36v-2a1.52 1.52 0 00-1.52-1.51z" fill="#fff"></path>
  </symbol>
  <symbol xmlns="http://www.w3.org/2000/svg" viewBox="0 0 28.85 24" id="recipe-by-taxonomy">
    <title>recipe by taxonomy</title>
    <path d="M27.48 20v-7H15.09L15 10.53l-.1-1.24v-.42a.25.25 0 01.22-.26 2.85 2.85 0 002.49-2.79L17.22 0h-.54l.06 5.4a.83.83 0 01-.81.81.8.8 0 01-.82-.79L15 0h-.92l.06 5.4a.82.82 0 01-1.63 0L12.48.06h-.54l-.23 5.84a2.83 2.83 0 002.43 2.7.21.21 0 01.14.07.26.26 0 01.07.19v.35l-.08 1.37-.13 2.42H1.37v7a2.06 2.06 0 101.38 0v-5.62h11.31L13.78 20a2.07 2.07 0 101.67.17l-.29-5.78H26.1V20a2.06 2.06 0 101.38 0z"></path>
  </symbol>
  <symbol xmlns="http://www.w3.org/2000/svg" viewBox="0 0 18 24" id="recipe-card">
    <title>recipe card</title>
    <path d="M1 0a1 1 0 00-1 1v22a1 1 0 001 1h16a1 1 0 001-1V1a1 1 0 00-1-1zm4.89 5.27c1.43-.95 3.45.33 3.45.33a2.22 2.22 0 001.4.39H11a2.49 2.49 0 012.5 2.49 2.35 2.35 0 01-.78 1.66 2.36 2.36 0 00-.72 1.58v.94l.26.11c.13.05.23.36.23.36l-.1.23a2.88 2.88 0 01-1.36.23H7a5 5 0 01-1.23-.1c-.13-.06-.23-.36-.23-.36s0-.11.1-.24.37-.23.38-.23a7.6 7.6 0 000-1v-.12A2.21 2.21 0 005.28 10L5 9.56a3.1 3.1 0 01.89-4.29zm10 16.32a5.05 5.05 0 01-1.29.12H3.43a5.05 5.05 0 01-1.29-.12v-.32a4.92 4.92 0 011.29-.13h11.14a4.92 4.92 0 011.29.13v.32zm0-2.29a4.92 4.92 0 01-1.29.13H3.43a4.92 4.92 0 01-1.29-.13V19a4.92 4.92 0 011.29-.13h11.14a4.92 4.92 0 011.29.13v.31zm0-2.29a4.52 4.52 0 01-1.29.13H3.43A4.52 4.52 0 012.14 17v-.3a4.92 4.92 0 011.29-.13h11.14a4.92 4.92 0 011.29.13v.3z"></path>
  </symbol>
  <symbol xmlns="http://www.w3.org/2000/svg" viewBox="0 0 512 512" id="star-gray">
    <path d="M498.412 183.003l-157.4-24.079L270.466 8.428c-5.269-11.238-23.68-11.238-28.949 0l-70.528 150.5-157.4 24.079a16.022 16.022 0 00-9.024 27.027l114.346 117.38-27.026 165.939c-2.155 13.182 11.9 23.074 23.531 16.6L256 432.142l140.586 77.833a16.015 16.015 0 0023.531-16.6L393.09 327.431l114.346-117.38a16.043 16.043 0 00-9.024-27.048z"></path>
  </symbol>
  <symbol xmlns="http://www.w3.org/2000/svg" viewBox="0 0 25.97 24.88" id="buttons">
    <title>buttons</title>
    <path fill="none" stroke="#25282e" stroke-miterlimit="10" d="M.5.5h24.97v10.16H.5z"></path>
    <path d="M2.48 2.58h21v6h-21z"></path>
    <path d="M15.64 24.65a5.33 5.33 0 01-4.44-2.6L8.59 18s-.93-1.37-1.33-1.91a1.57 1.57 0 01-.32-1.19 1.24 1.24 0 01.54-.9 1.41 1.41 0 01.74-.21 1.38 1.38 0 011.06.5c.1.13.21.27.32.43a13.41 13.41 0 001 1.15V7.68a1.32 1.32 0 011-1.3h.25a1.29 1.29 0 011.3 1.28v2.71a1.32 1.32 0 012.53.52v.89a1.32 1.32 0 012.54.51v1.26a1.32 1.32 0 012.51.28v5.82a3 3 0 010 .42 5.05 5.05 0 01-5.09 4.58z"></path>
    <path d="M11.83 6.59a1.06 1.06 0 011.06 1v6.49a.18.18 0 00.17.18.18.18 0 00.18-.18v-3.21a1.09 1.09 0 112.18 0v3.27a.18.18 0 00.36 0v-1.87a1.09 1.09 0 012.18 0v1.87a.18.18 0 00.18.18.18.18 0 00.17-.18V14a1.09 1.09 0 012.18 0v5.98a4.85 4.85 0 01-4.83 4.4 5.11 5.11 0 01-4.25-2.5l-2.63-4.03s-.93-1.37-1.33-1.92a1.14 1.14 0 01.16-1.7 1.15 1.15 0 011.49.25 15.84 15.84 0 001.56 1.86.14.14 0 00.09.05V7.68a1.07 1.07 0 01.84-1.07.75.75 0 01.21 0zm0-.46a1.43 1.43 0 00-.29 0 1.54 1.54 0 00-1.21 1.53v7.62c-.19-.23-.37-.47-.53-.69l-.33-.43a1.59 1.59 0 00-1.24-.59 1.61 1.61 0 00-.85.24 1.48 1.48 0 00-.64 1 1.79 1.79 0 00.37 1.36c.39.53 1.31 1.89 1.32 1.9s2.4 3.75 2.61 4.06a5.54 5.54 0 004.63 2.71 5.28 5.28 0 005.28-4.81 3.15 3.15 0 000-.44v-6h-.07a1.55 1.55 0 00-1.48-1.09 1.52 1.52 0 00-1 .35v-.58a1.55 1.55 0 00-2.54-1.19v-.21a1.55 1.55 0 00-1.55-1.56 1.64 1.64 0 00-1 .36v-2a1.51 1.51 0 00-1.51-1.51z" fill="#fff"></path>
  </symbol>
  <symbol xmlns="http://www.w3.org/2000/svg" viewBox="0 0 23.2 23.2" id="nutrition">
    <title>nutrition</title>
    <path d="M23.2 9.28H0a11.74 11.74 0 006.73 10.56l-1.05 1.62a1.18 1.18 0 001.05 1.74h9.74a1.18 1.18 0 001.05-1.74l-1.05-1.62A11.74 11.74 0 0023.2 9.28z"></path>
    <circle cx="4.64" cy="6.96" r="1.16"></circle>
    <circle cx="10.44" cy="5.8" r="1.16"></circle>
    <circle cx="6.96" cy="2.32" r="1.16"></circle>
    <circle cx="15.08" cy="1.16" r="1.16"></circle>
    <circle cx="17.4" cy="6.96" r="1.16"></circle>
  </symbol>
  <symbol xmlns="http://www.w3.org/2000/svg" viewBox="0 0 163.861 163.861" id="play-button">
    <title>play-button</title>
    <path d="M34.857 3.613C20.084-4.861 8.107 2.081 8.107 19.106v125.637c0 17.042 11.977 23.975 26.75 15.509L144.67 97.275c14.778-8.477 14.778-22.211 0-30.686L34.857 3.613z"></path>
  </symbol>
  	<symbol viewBox="0 0 20 20" xmlns="http://www.w3.org/2000/svg" id="cooking-temp">
		<title>play-button</title>
		<mask id="mask0_436_2286" style="mask-type:alpha" maskUnits="userSpaceOnUse" x="0" y="0">
			<rect fill="#D9D9D9"/>
		</mask>
		<g mask="url(#mask0_436_2286)">
			<path d="M9.99992 18.3332C8.84714 18.3332 7.86464 17.9271 7.05242 17.1148C6.23964 16.3021 5.83325 15.3193 5.83325 14.1665C5.83325 13.4998 5.97909 12.8782 6.27075 12.3015C6.56242 11.7254 6.97214 11.2359 7.49992 10.8332V4.1665C7.49992 3.47206 7.74297 2.88178 8.22909 2.39567C8.7152 1.90956 9.30547 1.6665 9.99992 1.6665C10.6944 1.6665 11.2846 1.90956 11.7708 2.39567C12.2569 2.88178 12.4999 3.47206 12.4999 4.1665V10.8332C13.0277 11.2359 13.4374 11.7254 13.7291 12.3015C14.0208 12.8782 14.1666 13.4998 14.1666 14.1665C14.1666 15.3193 13.7605 16.3021 12.9483 17.1148C12.1355 17.9271 11.1527 18.3332 9.99992 18.3332ZM9.16659 9.1665H10.8333V8.33317H9.99992V7.49984H10.8333V5.83317H9.99992V4.99984H10.8333V4.1665C10.8333 3.93039 10.7535 3.73234 10.5941 3.57234C10.4341 3.41289 10.236 3.33317 9.99992 3.33317C9.76381 3.33317 9.56603 3.41289 9.40659 3.57234C9.24659 3.73234 9.16659 3.93039 9.16659 4.1665V9.1665Z"/>
		</g>
	</symbol>
	<symbol viewBox="0 0 20 20" xmlns="http://www.w3.org/2000/svg" id="estimated-cost">
		<mask id="mask0_436_2300" style="mask-type:alpha" maskUnits="userSpaceOnUse" x="0" y="0">
			<rect fill="#D9D9D9"/>
		</mask>
		<g mask="url(#mask0_436_2300)">
			<path d="M11.6666 10.8335C12.361 10.8335 12.9513 10.5904 13.4374 10.1043C13.9235 9.61822 14.1666 9.02794 14.1666 8.3335C14.1666 7.63905 13.9235 7.04877 13.4374 6.56266C12.9513 6.07655 12.361 5.8335 11.6666 5.8335C10.9721 5.8335 10.3819 6.07655 9.89575 6.56266C9.40964 7.04877 9.16659 7.63905 9.16659 8.3335C9.16659 9.02794 9.40964 9.61822 9.89575 10.1043C10.3819 10.5904 10.9721 10.8335 11.6666 10.8335ZM5.83325 13.3335C5.37492 13.3335 4.9827 13.1702 4.65659 12.8435C4.32992 12.5174 4.16659 12.1252 4.16659 11.6668V5.00016C4.16659 4.54183 4.32992 4.14961 4.65659 3.8235C4.9827 3.49683 5.37492 3.3335 5.83325 3.3335H17.4999C17.9583 3.3335 18.3508 3.49683 18.6774 3.8235C19.0035 4.14961 19.1666 4.54183 19.1666 5.00016V11.6668C19.1666 12.1252 19.0035 12.5174 18.6774 12.8435C18.3508 13.1702 17.9583 13.3335 17.4999 13.3335H5.83325ZM2.49992 16.6668C2.04159 16.6668 1.64936 16.5038 1.32325 16.1777C0.996585 15.851 0.833252 15.4585 0.833252 15.0002V6.66683C0.833252 6.43072 0.913252 6.23266 1.07325 6.07266C1.2327 5.91322 1.43047 5.8335 1.66659 5.8335C1.9027 5.8335 2.10075 5.91322 2.26075 6.07266C2.4202 6.23266 2.49992 6.43072 2.49992 6.66683V15.0002H15.8333C16.0694 15.0002 16.2671 15.0802 16.4266 15.2402C16.5866 15.3996 16.6666 15.5974 16.6666 15.8335C16.6666 16.0696 16.5866 16.2674 16.4266 16.4268C16.2671 16.5868 16.0694 16.6668 15.8333 16.6668H2.49992ZM5.83325 6.66683C6.29159 6.66683 6.68381 6.5035 7.00992 6.17683C7.33659 5.85072 7.49992 5.4585 7.49992 5.00016H5.83325V6.66683ZM17.4999 6.66683V5.00016H15.8333C15.8333 5.4585 15.9963 5.85072 16.3224 6.17683C16.6491 6.5035 17.0416 6.66683 17.4999 6.66683ZM5.83325 11.6668H7.49992C7.49992 11.2085 7.33659 10.816 7.00992 10.4893C6.68381 10.1632 6.29159 10.0002 5.83325 10.0002V11.6668ZM15.8333 11.6668H17.4999V10.0002C17.0416 10.0002 16.6491 10.1632 16.3224 10.4893C15.9963 10.816 15.8333 11.2085 15.8333 11.6668Z"/>
		</g>
	</symbol>
	<svg viewBox="0 0 12 16" xmlns="http://www.w3.org/2000/svg" id="dietary">
		<path d="M5.99984 15.5C4.37484 15.5 2.9965 14.9339 1.86484 13.8017C0.732615 12.67 0.166504 11.2917 0.166504 9.66667C0.166504 8.59722 0.343726 7.52083 0.698171 6.4375C1.05206 5.35417 1.51039 4.37139 2.07317 3.48917C2.63539 2.6075 3.26373 1.88889 3.95817 1.33333C4.65262 0.777778 5.33317 0.5 5.99984 0.5C6.68039 0.5 7.36456 0.777778 8.05234 1.33333C8.73956 1.88889 9.36456 2.6075 9.92734 3.48917C10.4896 4.37139 10.9479 5.35417 11.3023 6.4375C11.6562 7.52083 11.8332 8.59722 11.8332 9.66667C11.8332 11.2917 11.2671 12.67 10.1348 13.8017C9.00317 14.9339 7.62484 15.5 5.99984 15.5ZM6.83317 13C7.06928 13 7.26734 12.92 7.42734 12.76C7.58678 12.6006 7.6665 12.4028 7.6665 12.1667C7.6665 11.9306 7.58678 11.7328 7.42734 11.5733C7.26734 11.4133 7.06928 11.3333 6.83317 11.3333C6.13873 11.3333 5.54845 11.0903 5.06234 10.6042C4.57623 10.1181 4.33317 9.52778 4.33317 8.83333C4.33317 8.59722 4.25345 8.39917 4.094 8.23917C3.934 8.07972 3.73595 8 3.49984 8C3.26373 8 3.06595 8.07972 2.9065 8.23917C2.7465 8.39917 2.6665 8.59722 2.6665 8.83333C2.6665 9.98611 3.07289 10.9689 3.88567 11.7817C4.69789 12.5939 5.68039 13 6.83317 13Z"/>
	</svg>
</svg>