<svg xmlns="http://www.w3.org/2000/svg" width="241" height="46.649" viewBox="0 0 241 46.649">
  <g id="Group_5619" data-name="Group 5619" transform="translate(-61.943 -356)">
    <path id="Path_23590" data-name="Path 23590" d="M10.272,1.822A5.3,5.3,0,0,1,6.863.341L6.639,1.458H2.615l3.8-17.773,4.136-.559L7.2-1.2a2.717,2.717,0,0,0,1.593.559A3.416,3.416,0,0,0,11.6-2.482a14.568,14.568,0,0,0,1.886-4.695,25.051,25.051,0,0,0,.671-5.757,6.143,6.143,0,0,0-1.076-4.01,3.721,3.721,0,0,0-3-1.271,8.348,8.348,0,0,0-3.759.824A6.287,6.287,0,0,0,3.7-15.029a6.716,6.716,0,0,0-.95,3.6,3.665,3.665,0,0,0,.2,1.439,2.427,2.427,0,0,1,.2.461,3.487,3.487,0,0,1-2.222-.615,2.392,2.392,0,0,1-.768-1.984,5.542,5.542,0,0,1,1.425-3.6A10.08,10.08,0,0,1,5.4-18.466,12.841,12.841,0,0,1,10.551-19.5q3.828,0,5.645,2.264a8.952,8.952,0,0,1,1.816,5.784,18.944,18.944,0,0,1-1.076,6.274A14.381,14.381,0,0,1,14.072-.135,5.161,5.161,0,0,1,10.272,1.822Zm12.519-.2A4.513,4.513,0,0,1,19.577.55a4.422,4.422,0,0,1-1.146-3.367,13.832,13.832,0,0,1,.754-4.248,9.859,9.859,0,0,1,2.459-4.01,5.894,5.894,0,0,1,4.331-1.691q3.074,0,3.074,2.683A5.007,5.007,0,0,1,28.156-7.2a6.6,6.6,0,0,1-2.375,2.11,7.67,7.67,0,0,1-3.158.908q-.056.838-.056,1.118a2.7,2.7,0,0,0,.475,1.858,2.07,2.07,0,0,0,1.537.489,4.642,4.642,0,0,0,2.585-.7,12.529,12.529,0,0,0,2.361-2.124h.95Q27.374,1.626,22.791,1.626Zm.056-7.154a3.684,3.684,0,0,0,1.97-.727,5.117,5.117,0,0,0,1.509-1.7,4.433,4.433,0,0,0,.573-2.18q0-1.146-.7-1.146-1.006,0-1.97,1.76A13.408,13.408,0,0,0,22.847-5.528Zm9.725,7.154A2.9,2.9,0,0,1,30.406.788a3.452,3.452,0,0,1-.824-2.515,9.69,9.69,0,0,1,.224-1.816l2.99-14,4.136-.559L33.717-3.013a3.459,3.459,0,0,0-.112.894,1.025,1.025,0,0,0,.265.8,1.31,1.31,0,0,0,.88.238,2.128,2.128,0,0,0,1.509-.685,3.913,3.913,0,0,0,1.006-1.774H38.44A7.746,7.746,0,0,1,35.785.55,5.788,5.788,0,0,1,32.572,1.626Zm9.641-15.649a2.13,2.13,0,0,1-1.565-.643A2.13,2.13,0,0,1,40-16.231a2.176,2.176,0,0,1,.643-1.579,2.107,2.107,0,0,1,1.565-.657,2.153,2.153,0,0,1,1.579.657,2.153,2.153,0,0,1,.657,1.579,2.107,2.107,0,0,1-.657,1.565A2.176,2.176,0,0,1,42.212-14.023Zm-1.9,15.649A2.9,2.9,0,0,1,38.146.788a3.452,3.452,0,0,1-.824-2.515,9.69,9.69,0,0,1,.224-1.816l1.9-8.97H43.47l-2.012,9.5a3.459,3.459,0,0,0-.112.894,1.025,1.025,0,0,0,.265.8,1.31,1.31,0,0,0,.88.238A2.128,2.128,0,0,0,44-1.769a3.913,3.913,0,0,0,1.006-1.774H46.18A7.746,7.746,0,0,1,43.526.55,5.788,5.788,0,0,1,40.312,1.626Zm8.97,0A4.513,4.513,0,0,1,46.069.55a4.422,4.422,0,0,1-1.146-3.367,13.607,13.607,0,0,1,.768-4.248,10.063,10.063,0,0,1,2.459-4.01,5.812,5.812,0,0,1,4.289-1.691,3.258,3.258,0,0,1,2.389.727,2.525,2.525,0,0,1,.713,1.844,2.385,2.385,0,0,1-.419,1.509,1.3,1.3,0,0,1-1.062.531,1.766,1.766,0,0,1-.978-.335,4.895,4.895,0,0,0,.335-1.649,1.551,1.551,0,0,0-.2-.838.65.65,0,0,0-.587-.307q-.838,0-1.677,1.369A12.757,12.757,0,0,0,49.59-6.59a13.585,13.585,0,0,0-.531,3.521,2.7,2.7,0,0,0,.475,1.858,2.07,2.07,0,0,0,1.537.489,4.642,4.642,0,0,0,2.585-.7,12.529,12.529,0,0,0,2.361-2.124h.95Q53.865,1.626,49.282,1.626ZM60.963-14.023a2.13,2.13,0,0,1-1.565-.643,2.13,2.13,0,0,1-.643-1.565,2.176,2.176,0,0,1,.643-1.579,2.107,2.107,0,0,1,1.565-.657,2.153,2.153,0,0,1,1.579.657,2.153,2.153,0,0,1,.657,1.579,2.107,2.107,0,0,1-.657,1.565A2.176,2.176,0,0,1,60.963-14.023Zm-1.9,15.649A2.9,2.9,0,0,1,56.9.788a3.452,3.452,0,0,1-.824-2.515A9.69,9.69,0,0,1,56.3-3.544l1.9-8.97h4.024l-2.012,9.5a3.459,3.459,0,0,0-.112.894,1.025,1.025,0,0,0,.265.8,1.31,1.31,0,0,0,.88.238,2.128,2.128,0,0,0,1.509-.685,3.913,3.913,0,0,0,1.006-1.774h1.174A7.746,7.746,0,0,1,62.276.55,5.788,5.788,0,0,1,59.063,1.626Zm9.054-.056A4.762,4.762,0,0,1,64.847.508a4.256,4.256,0,0,1-1.2-3.353,13.322,13.322,0,0,1,.782-4.22,9.978,9.978,0,0,1,2.515-4.01A5.989,5.989,0,0,1,71.3-12.765q3.577,0,3.577,4.471v.028a1.124,1.124,0,0,0,.307.028,5.747,5.747,0,0,0,2.124-.489,10.619,10.619,0,0,0,2.18-1.188l.252.754a6.688,6.688,0,0,1-2.11,1.467,10.931,10.931,0,0,1-2.836.852A12.653,12.653,0,0,1,73.65-2.4,7.545,7.545,0,0,1,71.274.536,5.335,5.335,0,0,1,68.117,1.57ZM69.235-.945a1.85,1.85,0,0,0,1.341-.768,6.884,6.884,0,0,0,1.174-2.1,13.522,13.522,0,0,0,.727-2.948q-.755-.168-.755-1.174a1.464,1.464,0,0,1,.866-1.509,2.875,2.875,0,0,0-.279-1.271.856.856,0,0,0-.782-.349q-.922,0-1.788,1.341a11.86,11.86,0,0,0-1.4,3.214,12.29,12.29,0,0,0-.531,3.3,3.584,3.584,0,0,0,.307,1.8A1.245,1.245,0,0,0,69.235-.945ZM79.35,1.626A2.9,2.9,0,0,1,77.185.788a3.452,3.452,0,0,1-.824-2.515,9.69,9.69,0,0,1,.224-1.816l1.9-8.97h4.024L80.5-3.013a4,4,0,0,0-.084.782q0,1.146.838,1.146a1.705,1.705,0,0,0,1.341-.657,4.866,4.866,0,0,0,.894-1.8l1.9-8.97H89.41L87.4-3.013a3.458,3.458,0,0,0-.112.894,1.025,1.025,0,0,0,.265.8,1.31,1.31,0,0,0,.88.238,1.732,1.732,0,0,0,1.355-.671A4.883,4.883,0,0,0,90.7-3.544H91.87A8.09,8.09,0,0,1,89.313.55a5.273,5.273,0,0,1-3.06,1.076A2.679,2.679,0,0,1,84.339.955a3.066,3.066,0,0,1-.852-1.984,5.649,5.649,0,0,1-2,2.1A4.5,4.5,0,0,1,79.35,1.626Zm14.811,0A4.57,4.57,0,0,1,91.9,1.109,3.393,3.393,0,0,1,90.528-.232a3.557,3.557,0,0,1-.447-1.719,2.941,2.941,0,0,1,.433-1.607,2.655,2.655,0,0,1,1.048-.992,35.667,35.667,0,0,0,1.9-3.954q.81-2,1.537-4.317l4.136-.559q.14,3.577.475,7.741.14,1.677.14,2.431a4.353,4.353,0,0,1-.866,2.794,4.864,4.864,0,0,1-2.138,1.565A7.333,7.333,0,0,1,94.161,1.626ZM93.267-.582A2.528,2.528,0,0,0,95-1.2a2.517,2.517,0,0,0,.7-1.984,22.71,22.71,0,0,0-.168-2.347q-.279-3.186-.363-4.275A32.336,32.336,0,0,1,92.9-4.522a1.057,1.057,0,0,1,.643.978,1.444,1.444,0,0,1-.349.95,1.1,1.1,0,0,1-.88.419.742.742,0,0,1-.755-.363,2.25,2.25,0,0,0,.405,1.481A1.619,1.619,0,0,0,93.267-.582Zm25.346,2.515q-2.18,0-2.18-1.872a6.436,6.436,0,0,1,.182-1.411q.182-.8.517-2.054.391-1.313.587-2.236a8.037,8.037,0,0,0,.2-1.649q0-1.9-1.677-1.9a4.021,4.021,0,0,0-.922.112L113.079,1.458h-4.024l3.8-17.773,4.136-.559-1.369,6.455h.224a3.111,3.111,0,0,0,2.012-.754,5.177,5.177,0,0,0,1.439-1.886,5.321,5.321,0,0,0,.517-2.222,2.971,2.971,0,0,0-.768-2.11,3,3,0,0,0-2.305-.824,9.147,9.147,0,0,0-3.968.81,6.055,6.055,0,0,0-2.641,2.347,6.847,6.847,0,0,0-.936,3.633,3.665,3.665,0,0,0,.2,1.439,2.427,2.427,0,0,1,.2.461,3.412,3.412,0,0,1-2.25-.629,2.6,2.6,0,0,1-.741-2.082,5.283,5.283,0,0,1,1.467-3.479,10.876,10.876,0,0,1,3.759-2.739A10.939,10.939,0,0,1,116.4-19.5a8.9,8.9,0,0,1,3.521.615,4.778,4.778,0,0,1,2.124,1.635,3.851,3.851,0,0,1,.7,2.222,4.967,4.967,0,0,1-.81,2.627,6.43,6.43,0,0,1-2.208,2.152,2.449,2.449,0,0,1,1.5,1.02,3.362,3.362,0,0,1,.433,1.774,8.174,8.174,0,0,1-.2,1.719q-.2.908-.559,2.25-.224.866-.419,1.7a6.366,6.366,0,0,0-.2,1.4A2.231,2.231,0,0,0,120.582.76a1.565,1.565,0,0,0,.8.7A10.83,10.83,0,0,1,118.612,1.933Zm8.886-.307A4.513,4.513,0,0,1,124.285.55a4.422,4.422,0,0,1-1.146-3.367,13.833,13.833,0,0,1,.755-4.248,9.859,9.859,0,0,1,2.459-4.01,5.894,5.894,0,0,1,4.331-1.691q3.074,0,3.074,2.683a5.007,5.007,0,0,1-.894,2.878,6.6,6.6,0,0,1-2.375,2.11,7.67,7.67,0,0,1-3.158.908q-.056.838-.056,1.118a2.7,2.7,0,0,0,.475,1.858,2.07,2.07,0,0,0,1.537.489,4.642,4.642,0,0,0,2.585-.7,12.528,12.528,0,0,0,2.361-2.124h.95Q132.081,1.626,127.5,1.626Zm.056-7.154a3.684,3.684,0,0,0,1.97-.727,5.117,5.117,0,0,0,1.509-1.7,4.433,4.433,0,0,0,.573-2.18q0-1.146-.7-1.146-1.006,0-1.97,1.76A13.409,13.409,0,0,0,127.555-5.528Zm10.954,7.154A4.513,4.513,0,0,1,135.3.55a4.422,4.422,0,0,1-1.146-3.367,13.607,13.607,0,0,1,.768-4.248,10.063,10.063,0,0,1,2.459-4.01,5.812,5.812,0,0,1,4.289-1.691,3.258,3.258,0,0,1,2.389.727,2.525,2.525,0,0,1,.713,1.844,2.385,2.385,0,0,1-.419,1.509,1.3,1.3,0,0,1-1.062.531,1.766,1.766,0,0,1-.978-.335,4.9,4.9,0,0,0,.335-1.649,1.551,1.551,0,0,0-.2-.838.65.65,0,0,0-.587-.307q-.838,0-1.677,1.369a12.757,12.757,0,0,0-1.369,3.325,13.586,13.586,0,0,0-.531,3.521,2.7,2.7,0,0,0,.475,1.858,2.07,2.07,0,0,0,1.537.489,4.642,4.642,0,0,0,2.585-.7,12.528,12.528,0,0,0,2.361-2.124h.95Q143.092,1.626,138.509,1.626Zm11.681-15.649a2.13,2.13,0,0,1-1.565-.643,2.13,2.13,0,0,1-.643-1.565,2.176,2.176,0,0,1,.643-1.579,2.107,2.107,0,0,1,1.565-.657,2.153,2.153,0,0,1,1.579.657,2.153,2.153,0,0,1,.657,1.579,2.107,2.107,0,0,1-.657,1.565A2.176,2.176,0,0,1,150.189-14.023Zm-1.9,15.649a2.9,2.9,0,0,1-2.166-.838,3.452,3.452,0,0,1-.824-2.515,9.691,9.691,0,0,1,.224-1.816l1.9-8.97h4.024l-2.012,9.5a3.459,3.459,0,0,0-.112.894,1.025,1.025,0,0,0,.265.8,1.31,1.31,0,0,0,.88.238,2.128,2.128,0,0,0,1.509-.685,3.913,3.913,0,0,0,1.006-1.774h1.174A7.746,7.746,0,0,1,151.5.55,5.788,5.788,0,0,1,148.289,1.626Zm7.1-15.174h4.024l-.447,2.1a4.858,4.858,0,0,1,3.269-1.2,3.166,3.166,0,0,1,2.487,1.034,5.027,5.027,0,0,1,.922,3.381A16.166,16.166,0,0,1,165-3.781,8.887,8.887,0,0,1,162.82.047a5.4,5.4,0,0,1-4.052,1.579A2.52,2.52,0,0,1,156.393.62L154.94,7.438l-4.22,1.006ZM157.9-.805a2.627,2.627,0,0,0,2.222-1.257,8.55,8.55,0,0,0,1.285-3,14.456,14.456,0,0,0,.405-3.256q0-2.319-1.4-2.319a1.772,1.772,0,0,0-1.02.363,3.3,3.3,0,0,0-.908,1.006L156.84-1.448A.992.992,0,0,0,157.9-.805Zm12.715,2.431A4.513,4.513,0,0,1,167.4.55a4.422,4.422,0,0,1-1.146-3.367,13.833,13.833,0,0,1,.754-4.248,9.859,9.859,0,0,1,2.459-4.01,5.894,5.894,0,0,1,4.331-1.691q3.074,0,3.074,2.683a5.007,5.007,0,0,1-.894,2.878,6.6,6.6,0,0,1-2.375,2.11,7.67,7.67,0,0,1-3.158.908q-.056.838-.056,1.118a2.7,2.7,0,0,0,.475,1.858,2.07,2.07,0,0,0,1.537.489,4.642,4.642,0,0,0,2.585-.7,12.528,12.528,0,0,0,2.361-2.124h.95Q175.2,1.626,170.617,1.626Zm.056-7.154a3.684,3.684,0,0,0,1.97-.727,5.117,5.117,0,0,0,1.509-1.7,4.433,4.433,0,0,0,.573-2.18q0-1.146-.7-1.146-1.006,0-1.97,1.76A13.408,13.408,0,0,0,170.673-5.528Zm10.144,7.154a4.57,4.57,0,0,1-2.263-.517,3.393,3.393,0,0,1-1.369-1.341,3.557,3.557,0,0,1-.447-1.719,2.941,2.941,0,0,1,.433-1.607,2.655,2.655,0,0,1,1.048-.992,35.674,35.674,0,0,0,1.9-3.954q.81-2,1.537-4.317l4.136-.559q.14,3.577.475,7.741.14,1.677.14,2.431a4.353,4.353,0,0,1-.866,2.794A4.864,4.864,0,0,1,183.4,1.151,7.333,7.333,0,0,1,180.817,1.626Zm-.894-2.208a2.528,2.528,0,0,0,1.733-.615,2.517,2.517,0,0,0,.7-1.984,22.708,22.708,0,0,0-.168-2.347q-.279-3.186-.363-4.275a32.335,32.335,0,0,1-2.263,5.281,1.057,1.057,0,0,1,.643.978,1.444,1.444,0,0,1-.349.95,1.1,1.1,0,0,1-.88.419.742.742,0,0,1-.754-.363,2.25,2.25,0,0,0,.405,1.481A1.619,1.619,0,0,0,179.922-.582Z" transform="translate(116.538 390.99)" fill="#2db68d"/>
    <g id="Group_1485" data-name="Group 1485" transform="translate(61.943 356)">
      <g id="Group_1484" data-name="Group 1484" transform="translate(0)">
        <path id="Path_23588" data-name="Path 23588" d="M87.575,393.6c.21-.044.366-.066.515-.11a10.37,10.37,0,0,0,4.283-2.23,3.853,3.853,0,0,0,1.158-1.758,2.85,2.85,0,0,0-.354-2.38,5.747,5.747,0,0,0-1.391-1.464.892.892,0,1,1,1.112-1.39,6.7,6.7,0,0,1,2.035,2.36,4.474,4.474,0,0,1,.419,2.8,5.689,5.689,0,0,1-2.216,3.5,10.115,10.115,0,0,1-2.518,1.523,16.34,16.34,0,0,1-2.336.789c-.976.239-1.973.4-2.968.547a33.976,33.976,0,0,1-6.31.247c-1.122-.041-2.242-.178-3.359-.3-.868-.1-1.737-.213-2.595-.376-.838-.159-1.672-.356-2.49-.6-.935-.275-1.861-.585-2.77-.935a9.209,9.209,0,0,1-5.082-4.437,6.586,6.586,0,0,1-.691-4.065,7.59,7.59,0,0,1,1.749-3.732,12.368,12.368,0,0,1,3.782-3.035,28.528,28.528,0,0,1,2.966-1.349,19.151,19.151,0,0,1,2.5-.757c1.153-.277,2.317-.516,3.485-.723a33.156,33.156,0,0,1,6.608-.451.537.537,0,0,0,.47-.188c.961-1.1,1.949-2.185,2.884-3.31a5.365,5.365,0,0,0,.6-1.179c.44-.941.871-1.887,1.305-2.831q.735-1.6,1.471-3.2c.48-1.036.966-2.069,1.447-3.1.423-.908.837-1.821,1.267-2.726a4.929,4.929,0,0,1,5.155-2.689,4.981,4.981,0,0,1,3.283,1.914,4.907,4.907,0,0,1,1.015,3.639,5.592,5.592,0,0,1-1.05,2.546c-1.265,1.847-2.5,3.713-3.753,5.568-1.219,1.805-2.448,3.606-3.665,5.413a4.02,4.02,0,0,0-.583,1.368c-.153.672-.394,1.324-.6,1.983s-.425,1.335-.639,2c-.2.631-.407,1.259-.605,1.891-.261.832-.514,1.666-.774,2.5-.243.776-.492,1.551-.738,2.327q-.4,1.273-.806,2.546l-.583,1.839C88,392.24,87.8,392.889,87.575,393.6Zm-5.8-16.485-.04-.079c-.093,0-.186,0-.278,0-.6.036-1.2.055-1.8.116-1.136.116-2.273.23-3.4.4a21.018,21.018,0,0,0-2.169.465c-.908.232-1.817.468-2.7.768a16.892,16.892,0,0,0-3.481,1.628,10.8,10.8,0,0,0-2.895,2.491,5.837,5.837,0,0,0-1.3,3.084,4.438,4.438,0,0,0,.4,2.209,7.293,7.293,0,0,0,4.184,3.924c.71.285,1.434.538,2.16.78.4.132.812.211,1.271.328-.041-.326-.089-.577-.1-.829a8.677,8.677,0,0,1,.467-3.285,8.005,8.005,0,0,1,1.529-2.694c.871-1.006,1.751-2.005,2.629-3.005q2.385-2.714,4.774-5.425C81.281,377.7,81.527,377.409,81.777,377.119Zm6.678-5.313c.106.07.2.137.3.192,1.068.6,2.14,1.2,3.2,1.813.2.113.291.09.409-.087q1.826-2.726,3.662-5.447,1.766-2.619,3.539-5.233a3.538,3.538,0,0,0,.7-1.8,3.141,3.141,0,0,0-.641-2.132,3.256,3.256,0,0,0-4.712-.56,5.84,5.84,0,0,0-1.293,2.119c-.435.9-.836,1.819-1.257,2.726-.5,1.07-1,2.137-1.5,3.207q-.729,1.568-1.452,3.14Zm1.293,2.8a3.05,3.05,0,0,1-.327-.2c-.22-.175-.327-.068-.457.129q-1.557,2.331-3.133,4.649-1.866,2.755-3.738,5.505c-.833,1.226-1.677,2.445-2.5,3.679-.563.848-1.147,1.689-1.622,2.585-.49.924-.858,1.913-1.281,2.872-.1.22.019.273.2.284,1.066.063,2.132.133,3.2.181a.459.459,0,0,0,.347-.168c.391-.6.793-1.2,1.124-1.832.453-.87.849-1.771,1.265-2.661q.745-1.592,1.483-3.188c.495-1.073.983-2.149,1.477-3.223q.723-1.571,1.45-3.14.563-1.221,1.124-2.443C88.821,376.642,89.275,375.645,89.747,374.609Zm-2.179-1.183-.058-.068a2.521,2.521,0,0,0-.251.222c-.94,1.073-1.872,2.152-2.814,3.223q-2.628,2.988-5.264,5.97c-1.191,1.353-2.371,2.716-3.573,4.059a8.034,8.034,0,0,0-1.989,3.348,6.9,6.9,0,0,0-.047,3.249c.019.088.1.215.174.23a7.243,7.243,0,0,0,.929.135.262.262,0,0,0,.2-.138c.18-.467.317-.952.517-1.41a18.56,18.56,0,0,1,1.1-2.323c.923-1.5,1.916-2.962,2.9-4.427,1.236-1.842,2.491-3.672,3.737-5.508q1.43-2.107,2.859-4.215Q86.781,374.6,87.569,373.426Zm3.84,2.122-.1-.037c-2.952,6.224-5.687,12.548-8.727,18.744a.664.664,0,0,0,.169.023c.891-.084,1.782-.167,2.671-.267a.357.357,0,0,0,.225-.211c.148-.409.274-.828.4-1.243.194-.612.385-1.226.578-1.838.263-.831.531-1.66.792-2.492.249-.793.49-1.59.74-2.384.267-.848.543-1.694.811-2.542.248-.785.489-1.572.738-2.357.266-.839.537-1.677.8-2.516q.3-.945.6-1.893C91.214,376.208,91.31,375.878,91.408,375.548Z" transform="translate(-61.943 -356)" fill="#2db68d"/>
        <path id="Path_23589" data-name="Path 23589" d="M121.857,400.521a9.939,9.939,0,0,1-.327,2.966,12.421,12.421,0,0,1-3.591,5.84,17.679,17.679,0,0,1-4.574,3.148c-.994.478-2.022.884-3.043,1.3a.909.909,0,0,1-1.129-.344.855.855,0,0,1,.117-1.074,3.42,3.42,0,0,1,.822-.417c1.065-.487,2.159-.921,3.193-1.467a15.037,15.037,0,0,0,3.417-2.5,11.219,11.219,0,0,0,2.8-4.074,8.024,8.024,0,0,0,.5-4.006,9.242,9.242,0,0,0-1.532-3.871,10.924,10.924,0,0,0-3.8-3.535c-1.033-.579-2.094-1.109-3.153-1.641-.422-.211-.871-.368-1.307-.55a.884.884,0,0,1-.493-1.169.929.929,0,0,1,1.109-.484c.98.447,2,.817,2.951,1.315,1.043.546,2.049,1.171,3.034,1.817a11.972,11.972,0,0,1,2.937,2.94,10.568,10.568,0,0,1,1.673,3.36,24.313,24.313,0,0,1,.473,2.425Z" transform="translate(-78.137 -367.204)" fill="#2db68d"/>
      </g>
    </g>
  </g>
</svg>
